ISO-10303-21;
HEADER;
/*Generated by software containing ST-Developer
 * from STEP Tools, Inc. (www.steptools.com) 
 */
/*OPTION: using custom renumber hook */
/*description */
/*implementation_level */
FILE_DESCRIPTION(('STEP AP242 Edition 2','STEP AP242 Edition 2''CAx-IF Rec.Pracs.---Representation and Presentation of Product Manufa
cturing Information (PMI)---4.0---2014-10-13','STEP AP242 Edition 2''CAx-IF Rec.Pracs.---Representation and Presentation of Product Manufa
cturing Information (PMI)---4.0---2014-10-13''CAx-IF Rec.Pracs.---3D Tessellated Geometry---0.4---2014-09-14','STEP AP242 Edition 2''CAx-IF Rec.Pracs.---Representation and Presentation of Product Manufa
cturing Information (PMI)---4.0---2014-10-13''CAx-IF Rec.Pracs.---3D Tessellated Geometry---0.4---2014-09-14''2;1','STEP AP242 Edition 2''CAx-IF Rec.Pracs.---Representation and Presentation of Product Manufa
cturing Information (PMI)---4.0---2014-10-13''CAx-IF Rec.Pracs.---3D Tessellated Geometry---0.4---2014-09-14''2;1''CAx-IF Rec.Pracs.---User Defined Attributes---1.5---2016-08-15'),'2;1');
/*name */
/*time_stamp */
/*author */
/*organization */
/*preprocessor_version */
/*originating_system */
/*authorisation */
FILE_NAME('/vol/tmp/translate-10448763957912706182/Board_Extended - Joint_Top.step','2026-03-01T01:24:34',(''),(''),'ST-DEVELOPER v20','ONSHAPE BY PTC INC, 1.211','  ');
FILE_SCHEMA(('AP242_MANAGED_MODEL_BASED_3D_ENGINEERING_MIM_LF { 1 0 10303 442 3 1 4 }'));
ENDSEC;
DATA;
#10=SHAPE_REPRESENTATION_RELATIONSHIP('','',#361,#11);
#11=ADVANCED_BREP_SHAPE_REPRESENTATION('',(#359),#675);
#12=LINE('',#592,#24);
#13=LINE('',#595,#25);
#14=LINE('',#597,#26);
#15=LINE('',#599,#27);
#16=LINE('',#604,#28);
#17=LINE('',#606,#29);
#18=LINE('',#608,#30);
#19=LINE('',#613,#31);
#20=LINE('',#615,#32);
#21=LINE('',#617,#33);
#22=LINE('',#622,#34);
#23=LINE('',#623,#35);
#24=VECTOR('',#425,1.);
#25=VECTOR('',#426,1.);
#26=VECTOR('',#427,1.);
#27=VECTOR('',#428,1.);
#28=VECTOR('',#429,1.);
#29=VECTOR('',#430,1.);
#30=VECTOR('',#431,1.);
#31=VECTOR('',#432,1.);
#32=VECTOR('',#433,1.);
#33=VECTOR('',#434,1.);
#34=VECTOR('',#435,1.);
#35=VECTOR('',#436,1.);
#36=B_SPLINE_SURFACE_WITH_KNOTS('',1,1,((#588,#589),(#590,#591)),.PLANE_SURF.,.F.,.F.,.F.,(2,2),(2,2),(0.,1.),(0.,1.),.UNSPECIFIED.);
#37=B_SPLINE_SURFACE_WITH_KNOTS('',1,1,((#600,#601),(#602,#603)),.PLANE_SURF.,.F.,.F.,.F.,(2,2),(2,2),(0.,1.),(0.,1.),.UNSPECIFIED.);
#38=B_SPLINE_SURFACE_WITH_KNOTS('',1,1,((#609,#610),(#611,#612)),.PLANE_SURF.,.F.,.F.,.F.,(2,2),(2,2),(0.,1.),(0.,1.),.UNSPECIFIED.);
#39=B_SPLINE_SURFACE_WITH_KNOTS('',1,1,((#618,#619),(#620,#621)),.PLANE_SURF.,.F.,.F.,.F.,(2,2),(2,2),(0.,1.),(0.,1.),.UNSPECIFIED.);
#40=B_SPLINE_SURFACE_WITH_KNOTS('',1,1,((#624,#625),(#626,#627)),.PLANE_SURF.,.F.,.F.,.F.,(2,2),(2,2),(0.,1.),(0.,1.),.UNSPECIFIED.);
#41=B_SPLINE_SURFACE_WITH_KNOTS('',1,1,((#631,#632),(#633,#634)),.PLANE_SURF.,.F.,.F.,.F.,(2,2),(2,2),(0.,1.),(0.,1.),.UNSPECIFIED.);
#42=B_SPLINE_SURFACE_WITH_KNOTS('',1,1,((#644,#645),(#646,#647)),.PLANE_SURF.,.F.,.F.,.F.,(2,2),(2,2),(0.0427315991146136,0.954561694782074),(0.0419418409000899,0.95612115358382),.PIECEWISE_BEZIER_KNOTS.);
#43=B_SPLINE_SURFACE_WITH_KNOTS('',1,1,((#657,#658),(#659,#660)),.PLANE_SURF.,.F.,.F.,.F.,(2,2),(2,2),(0.0427315991146131,0.954561694782075),(0.041941840900089,0.956121153583821),.PIECEWISE_BEZIER_KNOTS.);
#44=B_SPLINE_SURFACE_WITH_KNOTS('',1,1,((#670,#671),(#672,#673)),.PLANE_SURF.,.F.,.F.,.F.,(2,2),(2,2),(0.0427315991146132,0.954561694782075),(0.0419418409000899,0.95612115358382),.PIECEWISE_BEZIER_KNOTS.);
#45=(
B_SPLINE_CURVE(1,(#461,#462),.UNSPECIFIED.,.F.,.F.)
B_SPLINE_CURVE_WITH_KNOTS((2,2),(0.,1.),.PIECEWISE_BEZIER_KNOTS.)
BOUNDED_CURVE()
CURVE()
GEOMETRIC_REPRESENTATION_ITEM()
RATIONAL_B_SPLINE_CURVE((1.,1.))
REPRESENTATION_ITEM('')
);
#46=(
B_SPLINE_CURVE(1,(#466,#467),.UNSPECIFIED.,.F.,.F.)
B_SPLINE_CURVE_WITH_KNOTS((2,2),(0.,1.),.PIECEWISE_BEZIER_KNOTS.)
BOUNDED_CURVE()
CURVE()
GEOMETRIC_REPRESENTATION_ITEM()
RATIONAL_B_SPLINE_CURVE((1.,1.))
REPRESENTATION_ITEM('')
);
#47=(
B_SPLINE_CURVE(1,(#479,#480),.UNSPECIFIED.,.F.,.F.)
B_SPLINE_CURVE_WITH_KNOTS((2,2),(0.,1.),.PIECEWISE_BEZIER_KNOTS.)
BOUNDED_CURVE()
CURVE()
GEOMETRIC_REPRESENTATION_ITEM()
RATIONAL_B_SPLINE_CURVE((1.,1.))
REPRESENTATION_ITEM('')
);
#48=(
B_SPLINE_CURVE(1,(#484,#485),.UNSPECIFIED.,.F.,.F.)
B_SPLINE_CURVE_WITH_KNOTS((2,2),(0.,1.),.PIECEWISE_BEZIER_KNOTS.)
BOUNDED_CURVE()
CURVE()
GEOMETRIC_REPRESENTATION_ITEM()
RATIONAL_B_SPLINE_CURVE((1.,1.))
REPRESENTATION_ITEM('')
);
#49=(
B_SPLINE_CURVE(1,(#497,#498),.UNSPECIFIED.,.F.,.F.)
B_SPLINE_CURVE_WITH_KNOTS((2,2),(0.,1.),.PIECEWISE_BEZIER_KNOTS.)
BOUNDED_CURVE()
CURVE()
GEOMETRIC_REPRESENTATION_ITEM()
RATIONAL_B_SPLINE_CURVE((1.,1.))
REPRESENTATION_ITEM('')
);
#50=(
B_SPLINE_CURVE(1,(#502,#503),.UNSPECIFIED.,.F.,.F.)
B_SPLINE_CURVE_WITH_KNOTS((2,2),(0.,1.),.PIECEWISE_BEZIER_KNOTS.)
BOUNDED_CURVE()
CURVE()
GEOMETRIC_REPRESENTATION_ITEM()
RATIONAL_B_SPLINE_CURVE((1.,1.))
REPRESENTATION_ITEM('')
);
#51=(
B_SPLINE_CURVE(1,(#515,#516),.UNSPECIFIED.,.F.,.F.)
B_SPLINE_CURVE_WITH_KNOTS((2,2),(0.,1.),.PIECEWISE_BEZIER_KNOTS.)
BOUNDED_CURVE()
CURVE()
GEOMETRIC_REPRESENTATION_ITEM()
RATIONAL_B_SPLINE_CURVE((1.,1.))
REPRESENTATION_ITEM('')
);
#52=(
B_SPLINE_CURVE(1,(#520,#521),.UNSPECIFIED.,.F.,.F.)
B_SPLINE_CURVE_WITH_KNOTS((2,2),(0.,1.),.PIECEWISE_BEZIER_KNOTS.)
BOUNDED_CURVE()
CURVE()
GEOMETRIC_REPRESENTATION_ITEM()
RATIONAL_B_SPLINE_CURVE((1.,1.))
REPRESENTATION_ITEM('')
);
#53=(
B_SPLINE_CURVE(1,(#533,#534),.UNSPECIFIED.,.F.,.F.)
B_SPLINE_CURVE_WITH_KNOTS((2,2),(0.,1.),.PIECEWISE_BEZIER_KNOTS.)
BOUNDED_CURVE()
CURVE()
GEOMETRIC_REPRESENTATION_ITEM()
RATIONAL_B_SPLINE_CURVE((1.,1.))
REPRESENTATION_ITEM('')
);
#54=(
B_SPLINE_CURVE(1,(#538,#539),.UNSPECIFIED.,.F.,.F.)
B_SPLINE_CURVE_WITH_KNOTS((2,2),(0.,1.),.PIECEWISE_BEZIER_KNOTS.)
BOUNDED_CURVE()
CURVE()
GEOMETRIC_REPRESENTATION_ITEM()
RATIONAL_B_SPLINE_CURVE((1.,1.))
REPRESENTATION_ITEM('')
);
#55=(
B_SPLINE_CURVE(1,(#551,#552),.UNSPECIFIED.,.F.,.F.)
B_SPLINE_CURVE_WITH_KNOTS((2,2),(0.,1.),.PIECEWISE_BEZIER_KNOTS.)
BOUNDED_CURVE()
CURVE()
GEOMETRIC_REPRESENTATION_ITEM()
RATIONAL_B_SPLINE_CURVE((1.,1.))
REPRESENTATION_ITEM('')
);
#56=(
B_SPLINE_CURVE(1,(#556,#557),.UNSPECIFIED.,.F.,.F.)
B_SPLINE_CURVE_WITH_KNOTS((2,2),(0.,1.),.PIECEWISE_BEZIER_KNOTS.)
BOUNDED_CURVE()
CURVE()
GEOMETRIC_REPRESENTATION_ITEM()
RATIONAL_B_SPLINE_CURVE((1.,1.))
REPRESENTATION_ITEM('')
);
#57=ORIENTED_EDGE('',*,*,#153,.F.);
#58=ORIENTED_EDGE('',*,*,#154,.T.);
#59=ORIENTED_EDGE('',*,*,#155,.T.);
#60=ORIENTED_EDGE('',*,*,#156,.F.);
#61=ORIENTED_EDGE('',*,*,#157,.F.);
#62=ORIENTED_EDGE('',*,*,#158,.T.);
#63=ORIENTED_EDGE('',*,*,#159,.T.);
#64=ORIENTED_EDGE('',*,*,#160,.F.);
#65=ORIENTED_EDGE('',*,*,#161,.F.);
#66=ORIENTED_EDGE('',*,*,#162,.T.);
#67=ORIENTED_EDGE('',*,*,#163,.T.);
#68=ORIENTED_EDGE('',*,*,#164,.F.);
#69=ORIENTED_EDGE('',*,*,#165,.T.);
#70=ORIENTED_EDGE('',*,*,#166,.T.);
#71=ORIENTED_EDGE('',*,*,#167,.F.);
#72=ORIENTED_EDGE('',*,*,#168,.F.);
#73=ORIENTED_EDGE('',*,*,#169,.T.);
#74=ORIENTED_EDGE('',*,*,#170,.T.);
#75=ORIENTED_EDGE('',*,*,#171,.F.);
#76=ORIENTED_EDGE('',*,*,#172,.F.);
#77=ORIENTED_EDGE('',*,*,#173,.T.);
#78=ORIENTED_EDGE('',*,*,#174,.T.);
#79=ORIENTED_EDGE('',*,*,#175,.F.);
#80=ORIENTED_EDGE('',*,*,#176,.F.);
#81=ORIENTED_EDGE('',*,*,#174,.F.);
#82=ORIENTED_EDGE('',*,*,#177,.T.);
#83=ORIENTED_EDGE('',*,*,#176,.T.);
#84=ORIENTED_EDGE('',*,*,#178,.F.);
#85=ORIENTED_EDGE('',*,*,#170,.F.);
#86=ORIENTED_EDGE('',*,*,#179,.T.);
#87=ORIENTED_EDGE('',*,*,#172,.T.);
#88=ORIENTED_EDGE('',*,*,#180,.F.);
#89=ORIENTED_EDGE('',*,*,#166,.F.);
#90=ORIENTED_EDGE('',*,*,#181,.T.);
#91=ORIENTED_EDGE('',*,*,#168,.T.);
#92=ORIENTED_EDGE('',*,*,#182,.F.);
#93=ORIENTED_EDGE('',*,*,#183,.F.);
#94=ORIENTED_EDGE('',*,*,#184,.F.);
#95=ORIENTED_EDGE('',*,*,#185,.T.);
#96=ORIENTED_EDGE('',*,*,#186,.T.);
#97=ORIENTED_EDGE('',*,*,#187,.F.);
#98=ORIENTED_EDGE('',*,*,#188,.F.);
#99=ORIENTED_EDGE('',*,*,#189,.T.);
#100=ORIENTED_EDGE('',*,*,#184,.T.);
#101=ORIENTED_EDGE('',*,*,#190,.F.);
#102=ORIENTED_EDGE('',*,*,#191,.F.);
#103=ORIENTED_EDGE('',*,*,#192,.T.);
#104=ORIENTED_EDGE('',*,*,#188,.T.);
#105=ORIENTED_EDGE('',*,*,#193,.T.);
#106=ORIENTED_EDGE('',*,*,#186,.F.);
#107=ORIENTED_EDGE('',*,*,#194,.F.);
#108=ORIENTED_EDGE('',*,*,#191,.T.);
#109=ORIENTED_EDGE('',*,*,#195,.F.);
#110=ORIENTED_EDGE('',*,*,#155,.F.);
#111=ORIENTED_EDGE('',*,*,#196,.F.);
#112=ORIENTED_EDGE('',*,*,#159,.F.);
#113=ORIENTED_EDGE('',*,*,#197,.F.);
#114=ORIENTED_EDGE('',*,*,#163,.F.);
#115=ORIENTED_EDGE('',*,*,#185,.F.);
#116=ORIENTED_EDGE('',*,*,#189,.F.);
#117=ORIENTED_EDGE('',*,*,#192,.F.);
#118=ORIENTED_EDGE('',*,*,#194,.T.);
#119=ORIENTED_EDGE('',*,*,#183,.T.);
#120=ORIENTED_EDGE('',*,*,#193,.F.);
#121=ORIENTED_EDGE('',*,*,#190,.T.);
#122=ORIENTED_EDGE('',*,*,#187,.T.);
#123=ORIENTED_EDGE('',*,*,#171,.T.);
#124=ORIENTED_EDGE('',*,*,#180,.T.);
#125=ORIENTED_EDGE('',*,*,#175,.T.);
#126=ORIENTED_EDGE('',*,*,#178,.T.);
#127=ORIENTED_EDGE('',*,*,#167,.T.);
#128=ORIENTED_EDGE('',*,*,#182,.T.);
#129=ORIENTED_EDGE('',*,*,#162,.F.);
#130=ORIENTED_EDGE('',*,*,#198,.F.);
#131=ORIENTED_EDGE('',*,*,#164,.T.);
#132=ORIENTED_EDGE('',*,*,#197,.T.);
#133=ORIENTED_EDGE('',*,*,#165,.F.);
#134=ORIENTED_EDGE('',*,*,#181,.F.);
#135=ORIENTED_EDGE('',*,*,#198,.T.);
#136=ORIENTED_EDGE('',*,*,#161,.T.);
#137=ORIENTED_EDGE('',*,*,#158,.F.);
#138=ORIENTED_EDGE('',*,*,#199,.F.);
#139=ORIENTED_EDGE('',*,*,#160,.T.);
#140=ORIENTED_EDGE('',*,*,#196,.T.);
#141=ORIENTED_EDGE('',*,*,#173,.F.);
#142=ORIENTED_EDGE('',*,*,#177,.F.);
#143=ORIENTED_EDGE('',*,*,#199,.T.);
#144=ORIENTED_EDGE('',*,*,#157,.T.);
#145=ORIENTED_EDGE('',*,*,#154,.F.);
#146=ORIENTED_EDGE('',*,*,#200,.F.);
#147=ORIENTED_EDGE('',*,*,#156,.T.);
#148=ORIENTED_EDGE('',*,*,#195,.T.);
#149=ORIENTED_EDGE('',*,*,#169,.F.);
#150=ORIENTED_EDGE('',*,*,#179,.F.);
#151=ORIENTED_EDGE('',*,*,#200,.T.);
#152=ORIENTED_EDGE('',*,*,#153,.T.);
#153=EDGE_CURVE('',#201,#202,#233,.T.);
#154=EDGE_CURVE('',#201,#203,#45,.T.);
#155=EDGE_CURVE('',#203,#204,#234,.T.);
#156=EDGE_CURVE('',#202,#204,#46,.T.);
#157=EDGE_CURVE('',#205,#206,#235,.T.);
#158=EDGE_CURVE('',#205,#207,#47,.T.);
#159=EDGE_CURVE('',#207,#208,#236,.T.);
#160=EDGE_CURVE('',#206,#208,#48,.T.);
#161=EDGE_CURVE('',#209,#210,#237,.T.);
#162=EDGE_CURVE('',#209,#211,#49,.T.);
#163=EDGE_CURVE('',#211,#212,#238,.T.);
#164=EDGE_CURVE('',#210,#212,#50,.T.);
#165=EDGE_CURVE('',#213,#214,#239,.T.);
#166=EDGE_CURVE('',#214,#215,#51,.T.);
#167=EDGE_CURVE('',#216,#215,#240,.T.);
#168=EDGE_CURVE('',#213,#216,#52,.T.);
#169=EDGE_CURVE('',#217,#218,#241,.T.);
#170=EDGE_CURVE('',#218,#219,#53,.T.);
#171=EDGE_CURVE('',#220,#219,#242,.T.);
#172=EDGE_CURVE('',#217,#220,#54,.T.);
#173=EDGE_CURVE('',#221,#222,#243,.T.);
#174=EDGE_CURVE('',#222,#223,#55,.T.);
#175=EDGE_CURVE('',#224,#223,#244,.T.);
#176=EDGE_CURVE('',#221,#224,#56,.T.);
#177=EDGE_CURVE('',#222,#221,#245,.T.);
#178=EDGE_CURVE('',#223,#224,#246,.T.);
#179=EDGE_CURVE('',#218,#217,#247,.T.);
#180=EDGE_CURVE('',#219,#220,#248,.T.);
#181=EDGE_CURVE('',#214,#213,#249,.T.);
#182=EDGE_CURVE('',#215,#216,#250,.T.);
#183=EDGE_CURVE('',#225,#226,#12,.T.);
#184=EDGE_CURVE('',#227,#225,#13,.T.);
#185=EDGE_CURVE('',#227,#228,#14,.T.);
#186=EDGE_CURVE('',#228,#226,#15,.T.);
#187=EDGE_CURVE('',#229,#225,#16,.T.);
#188=EDGE_CURVE('',#230,#229,#17,.T.);
#189=EDGE_CURVE('',#230,#227,#18,.T.);
#190=EDGE_CURVE('',#231,#229,#19,.T.);
#191=EDGE_CURVE('',#232,#231,#20,.T.);
#192=EDGE_CURVE('',#232,#230,#21,.T.);
#193=EDGE_CURVE('',#231,#226,#22,.T.);
#194=EDGE_CURVE('',#232,#228,#23,.T.);
#195=EDGE_CURVE('',#204,#203,#251,.T.);
#196=EDGE_CURVE('',#208,#207,#252,.T.);
#197=EDGE_CURVE('',#212,#211,#253,.T.);
#198=EDGE_CURVE('',#210,#209,#254,.T.);
#199=EDGE_CURVE('',#206,#205,#255,.T.);
#200=EDGE_CURVE('',#202,#201,#256,.T.);
#201=VERTEX_POINT('',#459);
#202=VERTEX_POINT('',#460);
#203=VERTEX_POINT('',#463);
#204=VERTEX_POINT('',#465);
#205=VERTEX_POINT('',#477);
#206=VERTEX_POINT('',#478);
#207=VERTEX_POINT('',#481);
#208=VERTEX_POINT('',#483);
#209=VERTEX_POINT('',#495);
#210=VERTEX_POINT('',#496);
#211=VERTEX_POINT('',#499);
#212=VERTEX_POINT('',#501);
#213=VERTEX_POINT('',#513);
#214=VERTEX_POINT('',#514);
#215=VERTEX_POINT('',#517);
#216=VERTEX_POINT('',#519);
#217=VERTEX_POINT('',#531);
#218=VERTEX_POINT('',#532);
#219=VERTEX_POINT('',#535);
#220=VERTEX_POINT('',#537);
#221=VERTEX_POINT('',#549);
#222=VERTEX_POINT('',#550);
#223=VERTEX_POINT('',#553);
#224=VERTEX_POINT('',#555);
#225=VERTEX_POINT('',#593);
#226=VERTEX_POINT('',#594);
#227=VERTEX_POINT('',#596);
#228=VERTEX_POINT('',#598);
#229=VERTEX_POINT('',#605);
#230=VERTEX_POINT('',#607);
#231=VERTEX_POINT('',#614);
#232=VERTEX_POINT('',#616);
#233=CIRCLE('',#363,0.008115);
#234=CIRCLE('',#364,0.008115);
#235=CIRCLE('',#365,0.008115);
#236=CIRCLE('',#366,0.008115);
#237=CIRCLE('',#367,0.008115);
#238=CIRCLE('',#368,0.008115);
#239=CIRCLE('',#369,0.0051);
#240=CIRCLE('',#370,0.0051);
#241=CIRCLE('',#371,0.0051);
#242=CIRCLE('',#372,0.0051);
#243=CIRCLE('',#373,0.0051);
#244=CIRCLE('',#374,0.0051);
#245=CIRCLE('',#375,0.0051);
#246=CIRCLE('',#376,0.0051);
#247=CIRCLE('',#377,0.0051);
#248=CIRCLE('',#378,0.0051);
#249=CIRCLE('',#379,0.0051);
#250=CIRCLE('',#380,0.0051);
#251=CIRCLE('',#381,0.008115);
#252=CIRCLE('',#382,0.008115);
#253=CIRCLE('',#383,0.008115);
#254=CIRCLE('',#384,0.008115);
#255=CIRCLE('',#385,0.008115);
#256=CIRCLE('',#386,0.008115);
#257=EDGE_LOOP('',(#57,#58,#59,#60));
#258=EDGE_LOOP('',(#61,#62,#63,#64));
#259=EDGE_LOOP('',(#65,#66,#67,#68));
#260=EDGE_LOOP('',(#69,#70,#71,#72));
#261=EDGE_LOOP('',(#73,#74,#75,#76));
#262=EDGE_LOOP('',(#77,#78,#79,#80));
#263=EDGE_LOOP('',(#81,#82,#83,#84));
#264=EDGE_LOOP('',(#85,#86,#87,#88));
#265=EDGE_LOOP('',(#89,#90,#91,#92));
#266=EDGE_LOOP('',(#93,#94,#95,#96));
#267=EDGE_LOOP('',(#97,#98,#99,#100));
#268=EDGE_LOOP('',(#101,#102,#103,#104));
#269=EDGE_LOOP('',(#105,#106,#107,#108));
#270=EDGE_LOOP('',(#109,#110));
#271=EDGE_LOOP('',(#111,#112));
#272=EDGE_LOOP('',(#113,#114));
#273=EDGE_LOOP('',(#115,#116,#117,#118));
#274=EDGE_LOOP('',(#119,#120,#121,#122));
#275=EDGE_LOOP('',(#123,#124));
#276=EDGE_LOOP('',(#125,#126));
#277=EDGE_LOOP('',(#127,#128));
#278=EDGE_LOOP('',(#129,#130,#131,#132));
#279=EDGE_LOOP('',(#133,#134));
#280=EDGE_LOOP('',(#135,#136));
#281=EDGE_LOOP('',(#137,#138,#139,#140));
#282=EDGE_LOOP('',(#141,#142));
#283=EDGE_LOOP('',(#143,#144));
#284=EDGE_LOOP('',(#145,#146,#147,#148));
#285=EDGE_LOOP('',(#149,#150));
#286=EDGE_LOOP('',(#151,#152));
#287=FACE_BOUND('',#257,.T.);
#288=FACE_BOUND('',#258,.T.);
#289=FACE_BOUND('',#259,.T.);
#290=FACE_BOUND('',#260,.T.);
#291=FACE_BOUND('',#261,.T.);
#292=FACE_BOUND('',#262,.T.);
#293=FACE_BOUND('',#263,.T.);
#294=FACE_BOUND('',#264,.T.);
#295=FACE_BOUND('',#265,.T.);
#296=FACE_BOUND('',#266,.T.);
#297=FACE_BOUND('',#267,.T.);
#298=FACE_BOUND('',#268,.T.);
#299=FACE_BOUND('',#269,.T.);
#300=FACE_BOUND('',#270,.T.);
#301=FACE_BOUND('',#271,.T.);
#302=FACE_BOUND('',#272,.T.);
#303=FACE_BOUND('',#273,.T.);
#304=FACE_BOUND('',#274,.T.);
#305=FACE_BOUND('',#275,.T.);
#306=FACE_BOUND('',#276,.T.);
#307=FACE_BOUND('',#277,.T.);
#308=FACE_BOUND('',#278,.T.);
#309=FACE_BOUND('',#279,.T.);
#310=FACE_BOUND('',#280,.T.);
#311=FACE_BOUND('',#281,.T.);
#312=FACE_BOUND('',#282,.T.);
#313=FACE_BOUND('',#283,.T.);
#314=FACE_BOUND('',#284,.T.);
#315=FACE_BOUND('',#285,.T.);
#316=FACE_BOUND('',#286,.T.);
#317=(
B_SPLINE_SURFACE(3,1,((#450,#451),(#452,#453),(#454,#455),(#456,#457)),.CYLINDRICAL_SURF.,.F.,.F.,.F.)
B_SPLINE_SURFACE_WITH_KNOTS((4,4),(2,2),(0.5,1.),(0.0454545454545455,0.954545454545455),.PIECEWISE_BEZIER_KNOTS.)
BOUNDED_SURFACE()
GEOMETRIC_REPRESENTATION_ITEM()
RATIONAL_B_SPLINE_SURFACE(((1.,1.),(0.333333333333333,0.333333333333333),(0.333333333333333,0.333333333333333),(1.,1.)))
REPRESENTATION_ITEM('')
SURFACE()
);
#318=(
B_SPLINE_SURFACE(3,1,((#468,#469),(#470,#471),(#472,#473),(#474,#475)),.CYLINDRICAL_SURF.,.F.,.F.,.F.)
B_SPLINE_SURFACE_WITH_KNOTS((4,4),(2,2),(0.5,1.),(0.0454545454545455,0.954545454545455),.PIECEWISE_BEZIER_KNOTS.)
BOUNDED_SURFACE()
GEOMETRIC_REPRESENTATION_ITEM()
RATIONAL_B_SPLINE_SURFACE(((1.,1.),(0.333333333333333,0.333333333333333),(0.333333333333333,0.333333333333333),(1.,1.)))
REPRESENTATION_ITEM('')
SURFACE()
);
#319=(
B_SPLINE_SURFACE(3,1,((#486,#487),(#488,#489),(#490,#491),(#492,#493)),.CYLINDRICAL_SURF.,.F.,.F.,.F.)
B_SPLINE_SURFACE_WITH_KNOTS((4,4),(2,2),(0.5,1.),(0.0454545454545455,0.954545454545455),.PIECEWISE_BEZIER_KNOTS.)
BOUNDED_SURFACE()
GEOMETRIC_REPRESENTATION_ITEM()
RATIONAL_B_SPLINE_SURFACE(((1.,1.),(0.333333333333333,0.333333333333333),(0.333333333333333,0.333333333333333),(1.,1.)))
REPRESENTATION_ITEM('')
SURFACE()
);
#320=(
B_SPLINE_SURFACE(3,1,((#504,#505),(#506,#507),(#508,#509),(#510,#511)),.CYLINDRICAL_SURF.,.F.,.F.,.F.)
B_SPLINE_SURFACE_WITH_KNOTS((4,4),(2,2),(0.5,1.),(0.0454545454545453,0.954545454545455),.PIECEWISE_BEZIER_KNOTS.)
BOUNDED_SURFACE()
GEOMETRIC_REPRESENTATION_ITEM()
RATIONAL_B_SPLINE_SURFACE(((1.,1.),(0.333333333333333,0.333333333333333),(0.333333333333333,0.333333333333333),(1.,1.)))
REPRESENTATION_ITEM('')
SURFACE()
);
#321=(
B_SPLINE_SURFACE(3,1,((#522,#523),(#524,#525),(#526,#527),(#528,#529)),.CYLINDRICAL_SURF.,.F.,.F.,.F.)
B_SPLINE_SURFACE_WITH_KNOTS((4,4),(2,2),(0.5,1.),(0.0454545454545453,0.954545454545455),.PIECEWISE_BEZIER_KNOTS.)
BOUNDED_SURFACE()
GEOMETRIC_REPRESENTATION_ITEM()
RATIONAL_B_SPLINE_SURFACE(((1.,1.),(0.333333333333333,0.333333333333333),(0.333333333333333,0.333333333333333),(1.,1.)))
REPRESENTATION_ITEM('')
SURFACE()
);
#322=(
B_SPLINE_SURFACE(3,1,((#540,#541),(#542,#543),(#544,#545),(#546,#547)),.CYLINDRICAL_SURF.,.F.,.F.,.F.)
B_SPLINE_SURFACE_WITH_KNOTS((4,4),(2,2),(0.5,1.),(0.0454545454545454,0.954545454545455),.PIECEWISE_BEZIER_KNOTS.)
BOUNDED_SURFACE()
GEOMETRIC_REPRESENTATION_ITEM()
RATIONAL_B_SPLINE_SURFACE(((1.,1.),(0.333333333333333,0.333333333333333),(0.333333333333333,0.333333333333333),(1.,1.)))
REPRESENTATION_ITEM('')
SURFACE()
);
#323=(
B_SPLINE_SURFACE(3,1,((#558,#559),(#560,#561),(#562,#563),(#564,#565)),.CYLINDRICAL_SURF.,.F.,.F.,.F.)
B_SPLINE_SURFACE_WITH_KNOTS((4,4),(2,2),(0.,0.5),(0.0454545454545454,0.954545454545455),.PIECEWISE_BEZIER_KNOTS.)
BOUNDED_SURFACE()
GEOMETRIC_REPRESENTATION_ITEM()
RATIONAL_B_SPLINE_SURFACE(((1.,1.),(0.333333333333333,0.333333333333333),(0.333333333333333,0.333333333333333),(1.,1.)))
REPRESENTATION_ITEM('')
SURFACE()
);
#324=(
B_SPLINE_SURFACE(3,1,((#568,#569),(#570,#571),(#572,#573),(#574,#575)),.CYLINDRICAL_SURF.,.F.,.F.,.F.)
B_SPLINE_SURFACE_WITH_KNOTS((4,4),(2,2),(0.,0.5),(0.0454545454545453,0.954545454545455),.PIECEWISE_BEZIER_KNOTS.)
BOUNDED_SURFACE()
GEOMETRIC_REPRESENTATION_ITEM()
RATIONAL_B_SPLINE_SURFACE(((1.,1.),(0.333333333333333,0.333333333333333),(0.333333333333333,0.333333333333333),(1.,1.)))
REPRESENTATION_ITEM('')
SURFACE()
);
#325=(
B_SPLINE_SURFACE(3,1,((#578,#579),(#580,#581),(#582,#583),(#584,#585)),.CYLINDRICAL_SURF.,.F.,.F.,.F.)
B_SPLINE_SURFACE_WITH_KNOTS((4,4),(2,2),(0.,0.5),(0.0454545454545454,0.954545454545455),.PIECEWISE_BEZIER_KNOTS.)
BOUNDED_SURFACE()
GEOMETRIC_REPRESENTATION_ITEM()
RATIONAL_B_SPLINE_SURFACE(((1.,1.),(0.333333333333333,0.333333333333333),(0.333333333333333,0.333333333333333),(1.,1.)))
REPRESENTATION_ITEM('')
SURFACE()
);
#326=(
B_SPLINE_SURFACE(3,1,((#635,#636),(#637,#638),(#639,#640),(#641,#642)),.CYLINDRICAL_SURF.,.F.,.F.,.F.)
B_SPLINE_SURFACE_WITH_KNOTS((4,4),(2,2),(0.,0.5),(0.0454545454545455,0.954545454545455),.PIECEWISE_BEZIER_KNOTS.)
BOUNDED_SURFACE()
GEOMETRIC_REPRESENTATION_ITEM()
RATIONAL_B_SPLINE_SURFACE(((1.,1.),(0.333333333333333,0.333333333333333),(0.333333333333333,0.333333333333333),(1.,1.)))
REPRESENTATION_ITEM('')
SURFACE()
);
#327=(
B_SPLINE_SURFACE(3,1,((#648,#649),(#650,#651),(#652,#653),(#654,#655)),.CYLINDRICAL_SURF.,.F.,.F.,.F.)
B_SPLINE_SURFACE_WITH_KNOTS((4,4),(2,2),(0.,0.5),(0.0454545454545455,0.954545454545455),.PIECEWISE_BEZIER_KNOTS.)
BOUNDED_SURFACE()
GEOMETRIC_REPRESENTATION_ITEM()
RATIONAL_B_SPLINE_SURFACE(((1.,1.),(0.333333333333333,0.333333333333333),(0.333333333333333,0.333333333333333),(1.,1.)))
REPRESENTATION_ITEM('')
SURFACE()
);
#328=(
B_SPLINE_SURFACE(3,1,((#661,#662),(#663,#664),(#665,#666),(#667,#668)),.CYLINDRICAL_SURF.,.F.,.F.,.F.)
B_SPLINE_SURFACE_WITH_KNOTS((4,4),(2,2),(0.,0.5),(0.0454545454545455,0.954545454545455),.PIECEWISE_BEZIER_KNOTS.)
BOUNDED_SURFACE()
GEOMETRIC_REPRESENTATION_ITEM()
RATIONAL_B_SPLINE_SURFACE(((1.,1.),(0.333333333333333,0.333333333333333),(0.333333333333333,0.333333333333333),(1.,1.)))
REPRESENTATION_ITEM('')
SURFACE()
);
#329=ADVANCED_FACE('',(#287),#317,.F.);
#330=ADVANCED_FACE('',(#288),#318,.F.);
#331=ADVANCED_FACE('',(#289),#319,.F.);
#332=ADVANCED_FACE('',(#290),#320,.F.);
#333=ADVANCED_FACE('',(#291),#321,.F.);
#334=ADVANCED_FACE('',(#292),#322,.F.);
#335=ADVANCED_FACE('',(#293),#323,.F.);
#336=ADVANCED_FACE('',(#294),#324,.F.);
#337=ADVANCED_FACE('',(#295),#325,.F.);
#338=ADVANCED_FACE('',(#296),#36,.T.);
#339=ADVANCED_FACE('',(#297),#37,.T.);
#340=ADVANCED_FACE('',(#298),#38,.T.);
#341=ADVANCED_FACE('',(#299),#39,.F.);
#342=ADVANCED_FACE('',(#300,#301,#302,#303),#40,.T.);
#343=ADVANCED_FACE('',(#304,#305,#306,#307),#41,.F.);
#344=ADVANCED_FACE('',(#308),#326,.F.);
#345=ADVANCED_FACE('',(#309,#310),#42,.T.);
#346=ADVANCED_FACE('',(#311),#327,.F.);
#347=ADVANCED_FACE('',(#312,#313),#43,.T.);
#348=ADVANCED_FACE('',(#314),#328,.F.);
#349=ADVANCED_FACE('',(#315,#316),#44,.T.);
#350=CLOSED_SHELL('',(#329,#330,#331,#332,#333,#334,#335,#336,#337,#338,#339,#340,#341,#342,#343,#344,#345,#346,#347,#348,#349));
#351=STYLED_ITEM('',(#352),#359);
#352=PRESENTATION_STYLE_ASSIGNMENT((#353));
#353=SURFACE_STYLE_USAGE(.BOTH.,#354);
#354=SURFACE_SIDE_STYLE('',(#355));
#355=SURFACE_STYLE_FILL_AREA(#356);
#356=FILL_AREA_STYLE('',(#357));
#357=FILL_AREA_STYLE_COLOUR('',#358);
#358=COLOUR_RGB('',0.972549019607843,0.529411764705882,0.00392156862745098);
#359=MANIFOLD_SOLID_BREP('Joint_Top',#350);
#360=SHAPE_DEFINITION_REPRESENTATION(#680,#361);
#361=SHAPE_REPRESENTATION('Joint_Top',(#362),#675);
#362=AXIS2_PLACEMENT_3D('',#449,#387,#388);
#363=AXIS2_PLACEMENT_3D('',#458,#389,#390);
#364=AXIS2_PLACEMENT_3D('',#464,#391,#392);
#365=AXIS2_PLACEMENT_3D('',#476,#393,#394);
#366=AXIS2_PLACEMENT_3D('',#482,#395,#396);
#367=AXIS2_PLACEMENT_3D('',#494,#397,#398);
#368=AXIS2_PLACEMENT_3D('',#500,#399,#400);
#369=AXIS2_PLACEMENT_3D('',#512,#401,#402);
#370=AXIS2_PLACEMENT_3D('',#518,#403,#404);
#371=AXIS2_PLACEMENT_3D('',#530,#405,#406);
#372=AXIS2_PLACEMENT_3D('',#536,#407,#408);
#373=AXIS2_PLACEMENT_3D('',#548,#409,#410);
#374=AXIS2_PLACEMENT_3D('',#554,#411,#412);
#375=AXIS2_PLACEMENT_3D('',#566,#413,#414);
#376=AXIS2_PLACEMENT_3D('',#567,#415,#416);
#377=AXIS2_PLACEMENT_3D('',#576,#417,#418);
#378=AXIS2_PLACEMENT_3D('',#577,#419,#420);
#379=AXIS2_PLACEMENT_3D('',#586,#421,#422);
#380=AXIS2_PLACEMENT_3D('',#587,#423,#424);
#381=AXIS2_PLACEMENT_3D('',#628,#437,#438);
#382=AXIS2_PLACEMENT_3D('',#629,#439,#440);
#383=AXIS2_PLACEMENT_3D('',#630,#441,#442);
#384=AXIS2_PLACEMENT_3D('',#643,#443,#444);
#385=AXIS2_PLACEMENT_3D('',#656,#445,#446);
#386=AXIS2_PLACEMENT_3D('',#669,#447,#448);
#387=DIRECTION('',(0.,0.,1.));
#388=DIRECTION('',(1.,0.,0.));
#389=DIRECTION('',(0.,0.,1.));
#390=DIRECTION('',(1.,0.,0.));
#391=DIRECTION('',(0.,0.,1.));
#392=DIRECTION('',(1.,0.,0.));
#393=DIRECTION('',(0.,0.,1.));
#394=DIRECTION('',(1.,0.,0.));
#395=DIRECTION('',(0.,0.,1.));
#396=DIRECTION('',(1.,0.,0.));
#397=DIRECTION('',(0.,0.,1.));
#398=DIRECTION('',(1.,0.,0.));
#399=DIRECTION('',(0.,0.,1.));
#400=DIRECTION('',(1.,0.,0.));
#401=DIRECTION('',(0.,0.,1.));
#402=DIRECTION('',(1.,0.,0.));
#403=DIRECTION('',(0.,0.,1.));
#404=DIRECTION('',(1.,0.,0.));
#405=DIRECTION('',(0.,0.,1.));
#406=DIRECTION('',(1.,0.,0.));
#407=DIRECTION('',(0.,0.,1.));
#408=DIRECTION('',(1.,0.,0.));
#409=DIRECTION('',(0.,0.,1.));
#410=DIRECTION('',(1.,0.,0.));
#411=DIRECTION('',(0.,0.,1.));
#412=DIRECTION('',(1.,0.,0.));
#413=DIRECTION('',(0.,0.,1.));
#414=DIRECTION('',(1.,0.,0.));
#415=DIRECTION('',(0.,0.,1.));
#416=DIRECTION('',(1.,0.,0.));
#417=DIRECTION('',(0.,0.,1.));
#418=DIRECTION('',(1.,0.,0.));
#419=DIRECTION('',(0.,0.,1.));
#420=DIRECTION('',(1.,0.,0.));
#421=DIRECTION('',(0.,0.,1.));
#422=DIRECTION('',(1.,0.,0.));
#423=DIRECTION('',(0.,0.,1.));
#424=DIRECTION('',(1.,0.,0.));
#425=DIRECTION('',(0.887010833178222,-0.461748613235033,0.));
#426=DIRECTION('',(0.,0.,-1.));
#427=DIRECTION('',(0.887010833178222,-0.461748613235033,0.));
#428=DIRECTION('',(0.,0.,-1.));
#429=DIRECTION('',(0.461748613235034,0.887010833178222,0.));
#430=DIRECTION('',(0.,0.,-1.));
#431=DIRECTION('',(0.461748613235034,0.887010833178222,0.));
#432=DIRECTION('',(-0.887010833178222,0.461748613235034,0.));
#433=DIRECTION('',(0.,0.,-1.));
#434=DIRECTION('',(-0.887010833178222,0.461748613235034,0.));
#435=DIRECTION('',(0.461748613235034,0.887010833178222,0.));
#436=DIRECTION('',(0.461748613235034,0.887010833178222,0.));
#437=DIRECTION('',(0.,0.,1.));
#438=DIRECTION('',(1.,0.,0.));
#439=DIRECTION('',(0.,0.,1.));
#440=DIRECTION('',(1.,0.,0.));
#441=DIRECTION('',(0.,0.,1.));
#442=DIRECTION('',(1.,0.,0.));
#443=DIRECTION('',(0.,0.,1.));
#444=DIRECTION('',(1.,0.,0.));
#445=DIRECTION('',(0.,0.,1.));
#446=DIRECTION('',(1.,0.,0.));
#447=DIRECTION('',(0.,0.,1.));
#448=DIRECTION('',(1.,0.,0.));
#449=CARTESIAN_POINT('',(0.,0.,0.));
#450=CARTESIAN_POINT('',(-0.00811500000000007,0.133330540288789,0.00554));
#451=CARTESIAN_POINT('',(-0.00811500000000007,0.133330540288789,0.015));
#452=CARTESIAN_POINT('',(-0.00811500000000007,0.117100540288789,0.00554));
#453=CARTESIAN_POINT('',(-0.00811500000000007,0.117100540288789,0.015));
#454=CARTESIAN_POINT('',(0.00811499999999993,0.117100540288789,0.00554));
#455=CARTESIAN_POINT('',(0.00811499999999993,0.117100540288789,0.015));
#456=CARTESIAN_POINT('',(0.00811499999999993,0.133330540288789,0.00554));
#457=CARTESIAN_POINT('',(0.00811499999999993,0.133330540288789,0.015));
#458=CARTESIAN_POINT('',(-6.93889390390723E-17,0.133330540288789,0.00554));
#459=CARTESIAN_POINT('',(-0.00811500000000007,0.133330540288789,0.00554));
#460=CARTESIAN_POINT('',(0.00811499999999993,0.133330540288789,0.00554));
#461=CARTESIAN_POINT('',(-0.00811500000000007,0.133330540288789,0.005067));
#462=CARTESIAN_POINT('',(-0.00811500000000007,0.133330540288789,0.015473));
#463=CARTESIAN_POINT('',(-0.00811500000000007,0.133330540288789,0.015));
#464=CARTESIAN_POINT('',(-6.93889390390723E-17,0.133330540288789,0.015));
#465=CARTESIAN_POINT('',(0.00811499999999993,0.133330540288789,0.015));
#466=CARTESIAN_POINT('',(0.00811499999999993,0.133330540288789,0.005067));
#467=CARTESIAN_POINT('',(0.00811499999999993,0.133330540288789,0.015473));
#468=CARTESIAN_POINT('',(-0.0775224861066058,1.99403647191353E-17,0.00554));
#469=CARTESIAN_POINT('',(-0.0775224861066058,1.99403647191353E-17,0.015));
#470=CARTESIAN_POINT('',(-0.0775224861066058,-0.01623,0.00554));
#471=CARTESIAN_POINT('',(-0.0775224861066058,-0.01623,0.015));
#472=CARTESIAN_POINT('',(-0.0612924861066058,-0.01623,0.00554));
#473=CARTESIAN_POINT('',(-0.0612924861066058,-0.01623,0.015));
#474=CARTESIAN_POINT('',(-0.0612924861066058,1.89465638416272E-17,0.00554));
#475=CARTESIAN_POINT('',(-0.0612924861066058,1.89465638416272E-17,0.015));
#476=CARTESIAN_POINT('',(-0.0694074861066058,1.89465638416272E-17,0.00554));
#477=CARTESIAN_POINT('',(-0.0775224861066058,1.99403647191353E-17,0.00554));
#478=CARTESIAN_POINT('',(-0.0612924861066058,1.89465638416272E-17,0.00554));
#479=CARTESIAN_POINT('',(-0.0775224861066058,1.99403647191353E-17,0.005067));
#480=CARTESIAN_POINT('',(-0.0775224861066058,1.99403647191353E-17,0.015473));
#481=CARTESIAN_POINT('',(-0.0775224861066058,1.99403647191353E-17,0.015));
#482=CARTESIAN_POINT('',(-0.0694074861066058,1.89465638416272E-17,0.015));
#483=CARTESIAN_POINT('',(-0.0612924861066058,1.89465638416272E-17,0.015));
#484=CARTESIAN_POINT('',(-0.0612924861066058,1.89465638416272E-17,0.005067));
#485=CARTESIAN_POINT('',(-0.0612924861066058,1.89465638416272E-17,0.015473));
#486=CARTESIAN_POINT('',(-0.146929972213212,-0.133330540288789,0.00554));
#487=CARTESIAN_POINT('',(-0.146929972213212,-0.133330540288789,0.015));
#488=CARTESIAN_POINT('',(-0.146929972213212,-0.149560540288789,0.00554));
#489=CARTESIAN_POINT('',(-0.146929972213212,-0.149560540288789,0.015));
#490=CARTESIAN_POINT('',(-0.130699972213212,-0.149560540288789,0.00554));
#491=CARTESIAN_POINT('',(-0.130699972213212,-0.149560540288789,0.015));
#492=CARTESIAN_POINT('',(-0.130699972213212,-0.133330540288789,0.00554));
#493=CARTESIAN_POINT('',(-0.130699972213212,-0.133330540288789,0.015));
#494=CARTESIAN_POINT('',(-0.138814972213212,-0.133330540288789,0.00554));
#495=CARTESIAN_POINT('',(-0.146929972213212,-0.133330540288789,0.00554));
#496=CARTESIAN_POINT('',(-0.130699972213212,-0.133330540288789,0.00554));
#497=CARTESIAN_POINT('',(-0.146929972213212,-0.133330540288789,0.005067));
#498=CARTESIAN_POINT('',(-0.146929972213212,-0.133330540288789,0.015473));
#499=CARTESIAN_POINT('',(-0.146929972213212,-0.133330540288789,0.015));
#500=CARTESIAN_POINT('',(-0.138814972213212,-0.133330540288789,0.015));
#501=CARTESIAN_POINT('',(-0.130699972213212,-0.133330540288789,0.015));
#502=CARTESIAN_POINT('',(-0.130699972213212,-0.133330540288789,0.005067));
#503=CARTESIAN_POINT('',(-0.130699972213212,-0.133330540288789,0.015473));
#504=CARTESIAN_POINT('',(-0.133714972213212,-0.133330540288789,0.00554));
#505=CARTESIAN_POINT('',(-0.133714972213212,-0.133330540288789,1.62630325872826E-19));
#506=CARTESIAN_POINT('',(-0.133714972213212,-0.143530540288789,0.00554));
#507=CARTESIAN_POINT('',(-0.133714972213212,-0.143530540288789,-4.06575814682064E-19));
#508=CARTESIAN_POINT('',(-0.143914972213212,-0.143530540288789,0.00554));
#509=CARTESIAN_POINT('',(-0.143914972213212,-0.143530540288789,-4.06575814682064E-19));
#510=CARTESIAN_POINT('',(-0.143914972213212,-0.133330540288789,0.00554));
#511=CARTESIAN_POINT('',(-0.143914972213212,-0.133330540288789,1.62630325872826E-19));
#512=CARTESIAN_POINT('',(-0.138814972213212,-0.133330540288789,0.00554));
#513=CARTESIAN_POINT('',(-0.143914972213212,-0.133330540288789,0.00554));
#514=CARTESIAN_POINT('',(-0.133714972213212,-0.133330540288789,0.00554));
#515=CARTESIAN_POINT('',(-0.133714972213212,-0.133330540288789,0.005817));
#516=CARTESIAN_POINT('',(-0.133714972213212,-0.133330540288789,-0.000276999999999999));
#517=CARTESIAN_POINT('',(-0.133714972213212,-0.133330540288789,0.));
#518=CARTESIAN_POINT('',(-0.138814972213212,-0.133330540288789,0.));
#519=CARTESIAN_POINT('',(-0.143914972213212,-0.133330540288789,0.));
#520=CARTESIAN_POINT('',(-0.143914972213212,-0.133330540288789,0.005817));
#521=CARTESIAN_POINT('',(-0.143914972213212,-0.133330540288789,-0.000276999999999999));
#522=CARTESIAN_POINT('',(0.00509999999999993,0.133330540288789,0.00554));
#523=CARTESIAN_POINT('',(0.00509999999999993,0.133330540288789,1.62630325872826E-19));
#524=CARTESIAN_POINT('',(0.00509999999999993,0.123130540288789,0.00554));
#525=CARTESIAN_POINT('',(0.00509999999999993,0.123130540288789,-4.06575814682064E-19));
#526=CARTESIAN_POINT('',(-0.00510000000000007,0.123130540288789,0.00554));
#527=CARTESIAN_POINT('',(-0.00510000000000007,0.123130540288789,-4.06575814682064E-19));
#528=CARTESIAN_POINT('',(-0.00510000000000007,0.133330540288789,0.00554));
#529=CARTESIAN_POINT('',(-0.00510000000000007,0.133330540288789,1.62630325872826E-19));
#530=CARTESIAN_POINT('',(-6.93889390390723E-17,0.133330540288789,0.00554));
#531=CARTESIAN_POINT('',(-0.00510000000000007,0.133330540288789,0.00554));
#532=CARTESIAN_POINT('',(0.00509999999999993,0.133330540288789,0.00554));
#533=CARTESIAN_POINT('',(0.00509999999999993,0.133330540288789,0.005817));
#534=CARTESIAN_POINT('',(0.00509999999999993,0.133330540288789,-0.000276999999999999));
#535=CARTESIAN_POINT('',(0.00509999999999993,0.133330540288789,0.));
#536=CARTESIAN_POINT('',(-6.93889390390723E-17,0.133330540288789,0.));
#537=CARTESIAN_POINT('',(-0.00510000000000007,0.133330540288789,0.));
#538=CARTESIAN_POINT('',(-0.00510000000000007,0.133330540288789,0.005817));
#539=CARTESIAN_POINT('',(-0.00510000000000007,0.133330540288789,-0.000276999999999999));
#540=CARTESIAN_POINT('',(-0.0643074861066058,1.9080356504434E-17,0.00554));
#541=CARTESIAN_POINT('',(-0.0643074861066058,1.9080356504434E-17,1.62630325872826E-19));
#542=CARTESIAN_POINT('',(-0.0643074861066058,-0.0102,0.00554));
#543=CARTESIAN_POINT('',(-0.0643074861066058,-0.0102,-4.4723339615027E-19));
#544=CARTESIAN_POINT('',(-0.0745074861066058,-0.0102,0.00554));
#545=CARTESIAN_POINT('',(-0.0745074861066058,-0.0102,-4.4723339615027E-19));
#546=CARTESIAN_POINT('',(-0.0745074861066058,1.84557866368689E-17,0.00554));
#547=CARTESIAN_POINT('',(-0.0745074861066058,1.84557866368689E-17,1.62630325872826E-19));
#548=CARTESIAN_POINT('',(-0.0694074861066058,1.84557866368689E-17,0.00554));
#549=CARTESIAN_POINT('',(-0.0745074861066058,1.84557866368689E-17,0.00554));
#550=CARTESIAN_POINT('',(-0.0643074861066058,1.9080356504434E-17,0.00554));
#551=CARTESIAN_POINT('',(-0.0643074861066058,1.9080356504434E-17,0.005817));
#552=CARTESIAN_POINT('',(-0.0643074861066058,1.9080356504434E-17,-0.000276999999999999));
#553=CARTESIAN_POINT('',(-0.0643074861066058,1.9080356504434E-17,0.));
#554=CARTESIAN_POINT('',(-0.0694074861066058,1.84557866368689E-17,0.));
#555=CARTESIAN_POINT('',(-0.0745074861066058,1.84557866368689E-17,0.));
#556=CARTESIAN_POINT('',(-0.0745074861066058,1.84557866368689E-17,0.005817));
#557=CARTESIAN_POINT('',(-0.0745074861066058,1.84557866368689E-17,-0.000276999999999999));
#558=CARTESIAN_POINT('',(-0.0745074861066058,1.84557866368689E-17,0.00554));
#559=CARTESIAN_POINT('',(-0.0745074861066058,1.84557866368689E-17,1.62630325872826E-19));
#560=CARTESIAN_POINT('',(-0.0745074861066058,0.0102,0.00554));
#561=CARTESIAN_POINT('',(-0.0745074861066058,0.0102,-4.4723339615027E-19));
#562=CARTESIAN_POINT('',(-0.0643074861066058,0.0102,0.00554));
#563=CARTESIAN_POINT('',(-0.0643074861066058,0.0102,-4.4723339615027E-19));
#564=CARTESIAN_POINT('',(-0.0643074861066058,1.9080356504434E-17,0.00554));
#565=CARTESIAN_POINT('',(-0.0643074861066058,1.9080356504434E-17,1.62630325872826E-19));
#566=CARTESIAN_POINT('',(-0.0694074861066058,1.84557866368689E-17,0.00554));
#567=CARTESIAN_POINT('',(-0.0694074861066058,1.84557866368689E-17,0.));
#568=CARTESIAN_POINT('',(-0.00510000000000007,0.133330540288789,0.00554));
#569=CARTESIAN_POINT('',(-0.00510000000000007,0.133330540288789,1.62630325872826E-19));
#570=CARTESIAN_POINT('',(-0.00510000000000007,0.143530540288789,0.00554));
#571=CARTESIAN_POINT('',(-0.00510000000000007,0.143530540288789,-4.06575814682064E-19));
#572=CARTESIAN_POINT('',(0.00509999999999993,0.143530540288789,0.00554));
#573=CARTESIAN_POINT('',(0.00509999999999993,0.143530540288789,-4.06575814682064E-19));
#574=CARTESIAN_POINT('',(0.00509999999999993,0.133330540288789,0.00554));
#575=CARTESIAN_POINT('',(0.00509999999999993,0.133330540288789,1.62630325872826E-19));
#576=CARTESIAN_POINT('',(-6.93889390390723E-17,0.133330540288789,0.00554));
#577=CARTESIAN_POINT('',(-6.93889390390723E-17,0.133330540288789,0.));
#578=CARTESIAN_POINT('',(-0.143914972213212,-0.133330540288789,0.00554));
#579=CARTESIAN_POINT('',(-0.143914972213212,-0.133330540288789,1.62630325872826E-19));
#580=CARTESIAN_POINT('',(-0.143914972213212,-0.123130540288789,0.00554));
#581=CARTESIAN_POINT('',(-0.143914972213212,-0.123130540288789,-4.4723339615027E-19));
#582=CARTESIAN_POINT('',(-0.133714972213212,-0.123130540288789,0.00554));
#583=CARTESIAN_POINT('',(-0.133714972213212,-0.123130540288789,-4.4723339615027E-19));
#584=CARTESIAN_POINT('',(-0.133714972213212,-0.133330540288789,0.00554));
#585=CARTESIAN_POINT('',(-0.133714972213212,-0.133330540288789,1.62630325872826E-19));
#586=CARTESIAN_POINT('',(-0.138814972213212,-0.133330540288789,0.00554));
#587=CARTESIAN_POINT('',(-0.138814972213212,-0.133330540288789,0.));
#588=CARTESIAN_POINT('',(0.0191226281547262,0.140286659354481,-0.000749999999999994));
#589=CARTESIAN_POINT('',(0.0191226281547262,0.140286659354481,0.01575));
#590=CARTESIAN_POINT('',(-0.00527016975767531,0.152984746218445,-0.000749999999999994));
#591=CARTESIAN_POINT('',(-0.00527016975767531,0.152984746218445,0.01575));
#592=CARTESIAN_POINT('',(0.0126345274730845,0.143664150790006,0.));
#593=CARTESIAN_POINT('',(-0.00416140621620241,0.152407560451901,0.));
#594=CARTESIAN_POINT('',(0.0180138646132534,0.140863845121025,0.));
#595=CARTESIAN_POINT('',(-0.00416140621620241,0.152407560451901,0.015));
#596=CARTESIAN_POINT('',(-0.00416140621620241,0.152407560451901,0.015));
#597=CARTESIAN_POINT('',(0.0126345274730845,0.143664150790006,0.015));
#598=CARTESIAN_POINT('',(0.0180138646132534,0.140863845121025,0.015));
#599=CARTESIAN_POINT('',(0.0180138646132534,0.140863845121025,0.015));
#600=CARTESIAN_POINT('',(0.00347196531431086,0.167071130730547,-0.000750000000000021));
#601=CARTESIAN_POINT('',(0.00347196531431086,0.167071130730547,0.01575));
#602=CARTESIAN_POINT('',(-0.164462208356978,-0.155527415399671,-0.000750000000000021));
#603=CARTESIAN_POINT('',(-0.164462208356978,-0.155527415399671,0.01575));
#604=CARTESIAN_POINT('',(-0.00917141287382187,0.142783427206607,0.));
#605=CARTESIAN_POINT('',(-0.156828836826466,-0.140863845121025,0.));
#606=CARTESIAN_POINT('',(-0.156828836826466,-0.140863845121025,0.015));
#607=CARTESIAN_POINT('',(-0.156828836826466,-0.140863845121025,0.015));
#608=CARTESIAN_POINT('',(-0.00917141287382187,0.142783427206607,0.015));
#609=CARTESIAN_POINT('',(-0.157937600367938,-0.140286659354481,-0.000750000000000021));
#610=CARTESIAN_POINT('',(-0.157937600367938,-0.140286659354481,0.01575));
#611=CARTESIAN_POINT('',(-0.133544802455537,-0.152984746218444,-0.000750000000000021));
#612=CARTESIAN_POINT('',(-0.133544802455537,-0.152984746218444,0.01575));
#613=CARTESIAN_POINT('',(-0.142442567379669,-0.148352862975386,0.));
#614=CARTESIAN_POINT('',(-0.13465356599701,-0.152407560451901,0.));
#615=CARTESIAN_POINT('',(-0.13465356599701,-0.152407560451901,0.015));
#616=CARTESIAN_POINT('',(-0.13465356599701,-0.152407560451901,0.015));
#617=CARTESIAN_POINT('',(-0.142442567379669,-0.148352862975386,0.015));
#618=CARTESIAN_POINT('',(0.0256472361437666,0.155527415399671,-0.000750000000000021));
#619=CARTESIAN_POINT('',(0.0256472361437666,0.155527415399671,0.01575));
#620=CARTESIAN_POINT('',(-0.142286937527523,-0.167071130730547,-0.000750000000000021));
#621=CARTESIAN_POINT('',(-0.142286937527523,-0.167071130730547,0.01575));
#622=CARTESIAN_POINT('',(0.0160530694745414,0.137097192704907,0.));
#623=CARTESIAN_POINT('',(0.0160530694745414,0.137097192704907,0.015));
#624=CARTESIAN_POINT('',(-0.166724933727954,-0.169660096295056,0.015));
#625=CARTESIAN_POINT('',(-0.166724933727954,0.169660096295056,0.015));
#626=CARTESIAN_POINT('',(0.0279099615147415,-0.169660096295056,0.015));
#627=CARTESIAN_POINT('',(0.0279099615147415,0.169660096295056,0.015));
#628=CARTESIAN_POINT('',(-6.93889390390723E-17,0.133330540288789,0.015));
#629=CARTESIAN_POINT('',(-0.0694074861066058,1.89465638416272E-17,0.015));
#630=CARTESIAN_POINT('',(-0.138814972213212,-0.133330540288789,0.015));
#631=CARTESIAN_POINT('',(-0.166724933727954,-0.169660096295056,0.));
#632=CARTESIAN_POINT('',(-0.166724933727954,0.169660096295056,0.));
#633=CARTESIAN_POINT('',(0.0279099615147415,-0.169660096295056,0.));
#634=CARTESIAN_POINT('',(0.0279099615147415,0.169660096295056,0.));
#635=CARTESIAN_POINT('',(-0.130699972213212,-0.133330540288789,0.00554));
#636=CARTESIAN_POINT('',(-0.130699972213212,-0.133330540288789,0.015));
#637=CARTESIAN_POINT('',(-0.130699972213212,-0.117100540288789,0.00554));
#638=CARTESIAN_POINT('',(-0.130699972213212,-0.117100540288789,0.015));
#639=CARTESIAN_POINT('',(-0.146929972213212,-0.117100540288789,0.00554));
#640=CARTESIAN_POINT('',(-0.146929972213212,-0.117100540288789,0.015));
#641=CARTESIAN_POINT('',(-0.146929972213212,-0.133330540288789,0.00554));
#642=CARTESIAN_POINT('',(-0.146929972213212,-0.133330540288789,0.015));
#643=CARTESIAN_POINT('',(-0.138814972213212,-0.133330540288789,0.00554));
#644=CARTESIAN_POINT('',(-0.147076548327351,-0.141606385150973,0.00554));
#645=CARTESIAN_POINT('',(-0.147076548327351,-0.125089691762398,0.00554));
#646=CARTESIAN_POINT('',(-0.130602298797024,-0.141606385150973,0.00554));
#647=CARTESIAN_POINT('',(-0.130602298797024,-0.125089691762398,0.00554));
#648=CARTESIAN_POINT('',(-0.0612924861066058,1.89465638416272E-17,0.00554));
#649=CARTESIAN_POINT('',(-0.0612924861066058,1.89465638416272E-17,0.015));
#650=CARTESIAN_POINT('',(-0.0612924861066058,0.01623,0.00554));
#651=CARTESIAN_POINT('',(-0.0612924861066058,0.01623,0.015));
#652=CARTESIAN_POINT('',(-0.0775224861066058,0.01623,0.00554));
#653=CARTESIAN_POINT('',(-0.0775224861066058,0.01623,0.015));
#654=CARTESIAN_POINT('',(-0.0775224861066058,1.99403647191353E-17,0.00554));
#655=CARTESIAN_POINT('',(-0.0775224861066058,1.99403647191353E-17,0.015));
#656=CARTESIAN_POINT('',(-0.0694074861066058,1.89465638416272E-17,0.00554));
#657=CARTESIAN_POINT('',(-0.0776690622207447,-0.00827584486218362,0.00554));
#658=CARTESIAN_POINT('',(-0.0776690622207447,0.00824084852639116,0.00554));
#659=CARTESIAN_POINT('',(-0.0611948126904181,-0.00827584486218362,0.00554));
#660=CARTESIAN_POINT('',(-0.0611948126904181,0.00824084852639116,0.00554));
#661=CARTESIAN_POINT('',(0.00811499999999993,0.133330540288789,0.00554));
#662=CARTESIAN_POINT('',(0.00811499999999993,0.133330540288789,0.015));
#663=CARTESIAN_POINT('',(0.00811499999999993,0.149560540288789,0.00554));
#664=CARTESIAN_POINT('',(0.00811499999999993,0.149560540288789,0.015));
#665=CARTESIAN_POINT('',(-0.00811500000000007,0.149560540288789,0.00554));
#666=CARTESIAN_POINT('',(-0.00811500000000007,0.149560540288789,0.015));
#667=CARTESIAN_POINT('',(-0.00811500000000007,0.133330540288789,0.00554));
#668=CARTESIAN_POINT('',(-0.00811500000000007,0.133330540288789,0.015));
#669=CARTESIAN_POINT('',(-6.93889390390723E-17,0.133330540288789,0.00554));
#670=CARTESIAN_POINT('',(-0.00826157611413896,0.125054695426606,0.00554));
#671=CARTESIAN_POINT('',(-0.00826157611413896,0.141571388815181,0.00554));
#672=CARTESIAN_POINT('',(0.00821267341618764,0.125054695426606,0.00554));
#673=CARTESIAN_POINT('',(0.00821267341618764,0.141571388815181,0.00554));
#674=MECHANICAL_DESIGN_GEOMETRIC_PRESENTATION_REPRESENTATION('',(#351),#675);
#675=(
GEOMETRIC_REPRESENTATION_CONTEXT(3)
GLOBAL_UNCERTAINTY_ASSIGNED_CONTEXT((#676))
GLOBAL_UNIT_ASSIGNED_CONTEXT((#679,#678,#677))
REPRESENTATION_CONTEXT('Joint_Top','TOP_LEVEL_ASSEMBLY_PART')
);
#676=UNCERTAINTY_MEASURE_WITH_UNIT(LENGTH_MEASURE(1.E-08),#679,'DISTANCE_ACCURACY_VALUE','Maximum Tolerance applied to model');
#677=(
NAMED_UNIT(*)
SI_UNIT($,.STERADIAN.)
SOLID_ANGLE_UNIT()
);
#678=(
NAMED_UNIT(*)
PLANE_ANGLE_UNIT()
SI_UNIT($,.RADIAN.)
);
#679=(
LENGTH_UNIT()
NAMED_UNIT(*)
SI_UNIT($,.METRE.)
);
#680=PRODUCT_DEFINITION_SHAPE('','',#681);
#681=PRODUCT_DEFINITION('','',#683,#682);
#682=PRODUCT_DEFINITION_CONTEXT('',#689,'design');
#683=PRODUCT_DEFINITION_FORMATION_WITH_SPECIFIED_SOURCE('','',#685,.NOT_KNOWN.);
#684=PRODUCT_RELATED_PRODUCT_CATEGORY('','',(#685));
#685=PRODUCT('Joint_Top','Joint_Top','Joint_Top',(#687));
#686=PRODUCT_CATEGORY('','');
#687=PRODUCT_CONTEXT('',#689,'mechanical');
#688=APPLICATION_PROTOCOL_DEFINITION('international standard','ap242_managed_model_based_3d_engineering',2020,#689);
#689=APPLICATION_CONTEXT('managed model based 3d engineering');
ENDSEC;
END-ISO-10303-21;
