ISO-10303-21;
HEADER;
/*Generated by software containing ST-Developer
 * from STEP Tools, Inc. (www.steptools.com) 
 */
/*OPTION: using custom renumber hook */
/*description */
/*implementation_level */
FILE_DESCRIPTION(('STEP AP242 Edition 2','STEP AP242 Edition 2''CAx-IF Rec.Pracs.---Representation and Presentation of Product Manufa
cturing Information (PMI)---4.0---2014-10-13','STEP AP242 Edition 2''CAx-IF Rec.Pracs.---Representation and Presentation of Product Manufa
cturing Information (PMI)---4.0---2014-10-13''CAx-IF Rec.Pracs.---3D Tessellated Geometry---0.4---2014-09-14','STEP AP242 Edition 2''CAx-IF Rec.Pracs.---Representation and Presentation of Product Manufa
cturing Information (PMI)---4.0---2014-10-13''CAx-IF Rec.Pracs.---3D Tessellated Geometry---0.4---2014-09-14''2;1','STEP AP242 Edition 2''CAx-IF Rec.Pracs.---Representation and Presentation of Product Manufa
cturing Information (PMI)---4.0---2014-10-13''CAx-IF Rec.Pracs.---3D Tessellated Geometry---0.4---2014-09-14''2;1''CAx-IF Rec.Pracs.---User Defined Attributes---1.5---2016-08-15'),'2;1');
/*name */
/*time_stamp */
/*author */
/*organization */
/*preprocessor_version */
/*originating_system */
/*authorisation */
FILE_NAME('/vol/tmp/translate-10490719154310423075/Board_Extended - Part 8.step','2026-02-26T02:48:06',(''),(''),'ST-DEVELOPER v20','ONSHAPE BY PTC INC, 1.211','  ');
FILE_SCHEMA(('AP242_MANAGED_MODEL_BASED_3D_ENGINEERING_MIM_LF { 1 0 10303 442 3 1 4 }'));
ENDSEC;
DATA;
#10=SHAPE_REPRESENTATION_RELATIONSHIP('','',#235,#11);
#11=ADVANCED_BREP_SHAPE_REPRESENTATION('',(#233),#417);
#12=LINE('',#346,#24);
#13=LINE('',#349,#25);
#14=LINE('',#351,#26);
#15=LINE('',#353,#27);
#16=LINE('',#358,#28);
#17=LINE('',#360,#29);
#18=LINE('',#362,#30);
#19=LINE('',#367,#31);
#20=LINE('',#369,#32);
#21=LINE('',#371,#33);
#22=LINE('',#396,#34);
#23=LINE('',#397,#35);
#24=VECTOR('',#263,1.);
#25=VECTOR('',#264,1.);
#26=VECTOR('',#265,1.);
#27=VECTOR('',#266,1.);
#28=VECTOR('',#267,1.);
#29=VECTOR('',#268,1.);
#30=VECTOR('',#269,1.);
#31=VECTOR('',#270,1.);
#32=VECTOR('',#271,1.);
#33=VECTOR('',#272,1.);
#34=VECTOR('',#281,1.);
#35=VECTOR('',#282,1.);
#36=B_SPLINE_SURFACE_WITH_KNOTS('',1,1,((#342,#343),(#344,#345)),.PLANE_SURF.,.F.,.F.,.F.,(2,2),(2,2),(0.,1.),(0.,1.),.UNSPECIFIED.);
#37=B_SPLINE_SURFACE_WITH_KNOTS('',1,1,((#354,#355),(#356,#357)),.PLANE_SURF.,.F.,.F.,.F.,(2,2),(2,2),(0.,1.),(0.,1.),.UNSPECIFIED.);
#38=B_SPLINE_SURFACE_WITH_KNOTS('',1,1,((#363,#364),(#365,#366)),.PLANE_SURF.,.F.,.F.,.F.,(2,2),(2,2),(0.,1.),(0.,1.),.UNSPECIFIED.);
#39=B_SPLINE_SURFACE_WITH_KNOTS('',1,1,((#392,#393),(#394,#395)),.PLANE_SURF.,.F.,.F.,.F.,(2,2),(2,2),(0.,1.),(0.,1.),.UNSPECIFIED.);
#40=B_SPLINE_SURFACE_WITH_KNOTS('',1,1,((#408,#409),(#410,#411)),.PLANE_SURF.,.F.,.F.,.F.,(2,2),(2,2),(0.,1.),(0.,1.),.UNSPECIFIED.);
#41=B_SPLINE_SURFACE_WITH_KNOTS('',1,1,((#412,#413),(#414,#415)),.PLANE_SURF.,.F.,.F.,.F.,(2,2),(2,2),(0.,1.),(0.,1.),.UNSPECIFIED.);
#42=(
B_SPLINE_CURVE(1,(#299,#300),.UNSPECIFIED.,.F.,.F.)
B_SPLINE_CURVE_WITH_KNOTS((2,2),(0.,1.),.PIECEWISE_BEZIER_KNOTS.)
BOUNDED_CURVE()
CURVE()
GEOMETRIC_REPRESENTATION_ITEM()
RATIONAL_B_SPLINE_CURVE((1.,1.))
REPRESENTATION_ITEM('')
);
#43=(
B_SPLINE_CURVE(1,(#304,#305),.UNSPECIFIED.,.F.,.F.)
B_SPLINE_CURVE_WITH_KNOTS((2,2),(0.,1.),.PIECEWISE_BEZIER_KNOTS.)
BOUNDED_CURVE()
CURVE()
GEOMETRIC_REPRESENTATION_ITEM()
RATIONAL_B_SPLINE_CURVE((1.,1.))
REPRESENTATION_ITEM('')
);
#44=(
B_SPLINE_CURVE(1,(#317,#318),.UNSPECIFIED.,.F.,.F.)
B_SPLINE_CURVE_WITH_KNOTS((2,2),(0.,1.),.PIECEWISE_BEZIER_KNOTS.)
BOUNDED_CURVE()
CURVE()
GEOMETRIC_REPRESENTATION_ITEM()
RATIONAL_B_SPLINE_CURVE((1.,1.))
REPRESENTATION_ITEM('')
);
#45=(
B_SPLINE_CURVE(1,(#322,#323),.UNSPECIFIED.,.F.,.F.)
B_SPLINE_CURVE_WITH_KNOTS((2,2),(0.,1.),.PIECEWISE_BEZIER_KNOTS.)
BOUNDED_CURVE()
CURVE()
GEOMETRIC_REPRESENTATION_ITEM()
RATIONAL_B_SPLINE_CURVE((1.,1.))
REPRESENTATION_ITEM('')
);
#46=(
B_SPLINE_CURVE(1,(#335,#336),.UNSPECIFIED.,.F.,.F.)
B_SPLINE_CURVE_WITH_KNOTS((2,2),(0.,1.),.PIECEWISE_BEZIER_KNOTS.)
BOUNDED_CURVE()
CURVE()
GEOMETRIC_REPRESENTATION_ITEM()
RATIONAL_B_SPLINE_CURVE((1.,1.))
REPRESENTATION_ITEM('')
);
#47=(
B_SPLINE_CURVE(1,(#340,#341),.UNSPECIFIED.,.F.,.F.)
B_SPLINE_CURVE_WITH_KNOTS((2,2),(0.,1.),.PIECEWISE_BEZIER_KNOTS.)
BOUNDED_CURVE()
CURVE()
GEOMETRIC_REPRESENTATION_ITEM()
RATIONAL_B_SPLINE_CURVE((1.,1.))
REPRESENTATION_ITEM('')
);
#48=ORIENTED_EDGE('',*,*,#108,.T.);
#49=ORIENTED_EDGE('',*,*,#109,.T.);
#50=ORIENTED_EDGE('',*,*,#110,.F.);
#51=ORIENTED_EDGE('',*,*,#111,.F.);
#52=ORIENTED_EDGE('',*,*,#112,.T.);
#53=ORIENTED_EDGE('',*,*,#113,.T.);
#54=ORIENTED_EDGE('',*,*,#114,.F.);
#55=ORIENTED_EDGE('',*,*,#115,.F.);
#56=ORIENTED_EDGE('',*,*,#116,.T.);
#57=ORIENTED_EDGE('',*,*,#117,.T.);
#58=ORIENTED_EDGE('',*,*,#118,.F.);
#59=ORIENTED_EDGE('',*,*,#119,.F.);
#60=ORIENTED_EDGE('',*,*,#120,.F.);
#61=ORIENTED_EDGE('',*,*,#121,.F.);
#62=ORIENTED_EDGE('',*,*,#122,.T.);
#63=ORIENTED_EDGE('',*,*,#123,.T.);
#64=ORIENTED_EDGE('',*,*,#124,.F.);
#65=ORIENTED_EDGE('',*,*,#125,.F.);
#66=ORIENTED_EDGE('',*,*,#126,.T.);
#67=ORIENTED_EDGE('',*,*,#121,.T.);
#68=ORIENTED_EDGE('',*,*,#127,.T.);
#69=ORIENTED_EDGE('',*,*,#128,.F.);
#70=ORIENTED_EDGE('',*,*,#129,.F.);
#71=ORIENTED_EDGE('',*,*,#125,.T.);
#72=ORIENTED_EDGE('',*,*,#117,.F.);
#73=ORIENTED_EDGE('',*,*,#130,.T.);
#74=ORIENTED_EDGE('',*,*,#119,.T.);
#75=ORIENTED_EDGE('',*,*,#131,.F.);
#76=ORIENTED_EDGE('',*,*,#113,.F.);
#77=ORIENTED_EDGE('',*,*,#132,.T.);
#78=ORIENTED_EDGE('',*,*,#115,.T.);
#79=ORIENTED_EDGE('',*,*,#133,.F.);
#80=ORIENTED_EDGE('',*,*,#134,.T.);
#81=ORIENTED_EDGE('',*,*,#123,.F.);
#82=ORIENTED_EDGE('',*,*,#135,.F.);
#83=ORIENTED_EDGE('',*,*,#128,.T.);
#84=ORIENTED_EDGE('',*,*,#109,.F.);
#85=ORIENTED_EDGE('',*,*,#136,.T.);
#86=ORIENTED_EDGE('',*,*,#111,.T.);
#87=ORIENTED_EDGE('',*,*,#137,.F.);
#88=ORIENTED_EDGE('',*,*,#122,.F.);
#89=ORIENTED_EDGE('',*,*,#126,.F.);
#90=ORIENTED_EDGE('',*,*,#129,.T.);
#91=ORIENTED_EDGE('',*,*,#135,.T.);
#92=ORIENTED_EDGE('',*,*,#112,.F.);
#93=ORIENTED_EDGE('',*,*,#132,.F.);
#94=ORIENTED_EDGE('',*,*,#116,.F.);
#95=ORIENTED_EDGE('',*,*,#130,.F.);
#96=ORIENTED_EDGE('',*,*,#108,.F.);
#97=ORIENTED_EDGE('',*,*,#136,.F.);
#98=ORIENTED_EDGE('',*,*,#120,.T.);
#99=ORIENTED_EDGE('',*,*,#134,.F.);
#100=ORIENTED_EDGE('',*,*,#127,.F.);
#101=ORIENTED_EDGE('',*,*,#124,.T.);
#102=ORIENTED_EDGE('',*,*,#114,.T.);
#103=ORIENTED_EDGE('',*,*,#133,.T.);
#104=ORIENTED_EDGE('',*,*,#118,.T.);
#105=ORIENTED_EDGE('',*,*,#131,.T.);
#106=ORIENTED_EDGE('',*,*,#110,.T.);
#107=ORIENTED_EDGE('',*,*,#137,.T.);
#108=EDGE_CURVE('',#138,#139,#158,.T.);
#109=EDGE_CURVE('',#139,#140,#42,.T.);
#110=EDGE_CURVE('',#141,#140,#159,.T.);
#111=EDGE_CURVE('',#138,#141,#43,.T.);
#112=EDGE_CURVE('',#142,#143,#160,.T.);
#113=EDGE_CURVE('',#143,#144,#44,.T.);
#114=EDGE_CURVE('',#145,#144,#161,.T.);
#115=EDGE_CURVE('',#142,#145,#45,.T.);
#116=EDGE_CURVE('',#146,#147,#162,.T.);
#117=EDGE_CURVE('',#147,#148,#46,.T.);
#118=EDGE_CURVE('',#149,#148,#163,.T.);
#119=EDGE_CURVE('',#146,#149,#47,.T.);
#120=EDGE_CURVE('',#150,#151,#12,.T.);
#121=EDGE_CURVE('',#152,#150,#13,.T.);
#122=EDGE_CURVE('',#152,#153,#14,.T.);
#123=EDGE_CURVE('',#153,#151,#15,.T.);
#124=EDGE_CURVE('',#154,#150,#16,.T.);
#125=EDGE_CURVE('',#155,#154,#17,.T.);
#126=EDGE_CURVE('',#155,#152,#18,.T.);
#127=EDGE_CURVE('',#154,#156,#19,.T.);
#128=EDGE_CURVE('',#157,#156,#20,.T.);
#129=EDGE_CURVE('',#155,#157,#21,.T.);
#130=EDGE_CURVE('',#147,#146,#164,.T.);
#131=EDGE_CURVE('',#148,#149,#165,.T.);
#132=EDGE_CURVE('',#143,#142,#166,.T.);
#133=EDGE_CURVE('',#144,#145,#167,.T.);
#134=EDGE_CURVE('',#156,#151,#22,.T.);
#135=EDGE_CURVE('',#157,#153,#23,.T.);
#136=EDGE_CURVE('',#139,#138,#168,.T.);
#137=EDGE_CURVE('',#140,#141,#169,.T.);
#138=VERTEX_POINT('',#297);
#139=VERTEX_POINT('',#298);
#140=VERTEX_POINT('',#301);
#141=VERTEX_POINT('',#303);
#142=VERTEX_POINT('',#315);
#143=VERTEX_POINT('',#316);
#144=VERTEX_POINT('',#319);
#145=VERTEX_POINT('',#321);
#146=VERTEX_POINT('',#333);
#147=VERTEX_POINT('',#334);
#148=VERTEX_POINT('',#337);
#149=VERTEX_POINT('',#339);
#150=VERTEX_POINT('',#347);
#151=VERTEX_POINT('',#348);
#152=VERTEX_POINT('',#350);
#153=VERTEX_POINT('',#352);
#154=VERTEX_POINT('',#359);
#155=VERTEX_POINT('',#361);
#156=VERTEX_POINT('',#368);
#157=VERTEX_POINT('',#370);
#158=CIRCLE('',#237,0.005);
#159=CIRCLE('',#238,0.005);
#160=CIRCLE('',#239,0.005);
#161=CIRCLE('',#240,0.005);
#162=CIRCLE('',#241,0.005);
#163=CIRCLE('',#242,0.005);
#164=CIRCLE('',#243,0.005);
#165=CIRCLE('',#244,0.005);
#166=CIRCLE('',#245,0.005);
#167=CIRCLE('',#246,0.005);
#168=CIRCLE('',#247,0.005);
#169=CIRCLE('',#248,0.005);
#170=EDGE_LOOP('',(#48,#49,#50,#51));
#171=EDGE_LOOP('',(#52,#53,#54,#55));
#172=EDGE_LOOP('',(#56,#57,#58,#59));
#173=EDGE_LOOP('',(#60,#61,#62,#63));
#174=EDGE_LOOP('',(#64,#65,#66,#67));
#175=EDGE_LOOP('',(#68,#69,#70,#71));
#176=EDGE_LOOP('',(#72,#73,#74,#75));
#177=EDGE_LOOP('',(#76,#77,#78,#79));
#178=EDGE_LOOP('',(#80,#81,#82,#83));
#179=EDGE_LOOP('',(#84,#85,#86,#87));
#180=EDGE_LOOP('',(#88,#89,#90,#91));
#181=EDGE_LOOP('',(#92,#93));
#182=EDGE_LOOP('',(#94,#95));
#183=EDGE_LOOP('',(#96,#97));
#184=EDGE_LOOP('',(#98,#99,#100,#101));
#185=EDGE_LOOP('',(#102,#103));
#186=EDGE_LOOP('',(#104,#105));
#187=EDGE_LOOP('',(#106,#107));
#188=FACE_BOUND('',#170,.T.);
#189=FACE_BOUND('',#171,.T.);
#190=FACE_BOUND('',#172,.T.);
#191=FACE_BOUND('',#173,.T.);
#192=FACE_BOUND('',#174,.T.);
#193=FACE_BOUND('',#175,.T.);
#194=FACE_BOUND('',#176,.T.);
#195=FACE_BOUND('',#177,.T.);
#196=FACE_BOUND('',#178,.T.);
#197=FACE_BOUND('',#179,.T.);
#198=FACE_BOUND('',#180,.T.);
#199=FACE_BOUND('',#181,.T.);
#200=FACE_BOUND('',#182,.T.);
#201=FACE_BOUND('',#183,.T.);
#202=FACE_BOUND('',#184,.T.);
#203=FACE_BOUND('',#185,.T.);
#204=FACE_BOUND('',#186,.T.);
#205=FACE_BOUND('',#187,.T.);
#206=(
B_SPLINE_SURFACE(3,1,((#288,#289),(#290,#291),(#292,#293),(#294,#295)),.CYLINDRICAL_SURF.,.F.,.F.,.F.)
B_SPLINE_SURFACE_WITH_KNOTS((4,4),(2,2),(0.5,1.),(0.0454545454545455,0.954545454545454),.PIECEWISE_BEZIER_KNOTS.)
BOUNDED_SURFACE()
GEOMETRIC_REPRESENTATION_ITEM()
RATIONAL_B_SPLINE_SURFACE(((1.,1.),(0.333333333333333,0.333333333333333),(0.333333333333333,0.333333333333333),(1.,1.)))
REPRESENTATION_ITEM('')
SURFACE()
);
#207=(
B_SPLINE_SURFACE(3,1,((#306,#307),(#308,#309),(#310,#311),(#312,#313)),.CYLINDRICAL_SURF.,.F.,.F.,.F.)
B_SPLINE_SURFACE_WITH_KNOTS((4,4),(2,2),(0.5,1.),(0.0454545454545455,0.954545454545454),.PIECEWISE_BEZIER_KNOTS.)
BOUNDED_SURFACE()
GEOMETRIC_REPRESENTATION_ITEM()
RATIONAL_B_SPLINE_SURFACE(((1.,1.),(0.333333333333333,0.333333333333333),(0.333333333333333,0.333333333333333),(1.,1.)))
REPRESENTATION_ITEM('')
SURFACE()
);
#208=(
B_SPLINE_SURFACE(3,1,((#324,#325),(#326,#327),(#328,#329),(#330,#331)),.CYLINDRICAL_SURF.,.F.,.F.,.F.)
B_SPLINE_SURFACE_WITH_KNOTS((4,4),(2,2),(0.5,1.),(0.0454545454545454,0.954545454545454),.PIECEWISE_BEZIER_KNOTS.)
BOUNDED_SURFACE()
GEOMETRIC_REPRESENTATION_ITEM()
RATIONAL_B_SPLINE_SURFACE(((1.,1.),(0.333333333333333,0.333333333333333),(0.333333333333333,0.333333333333333),(1.,1.)))
REPRESENTATION_ITEM('')
SURFACE()
);
#209=(
B_SPLINE_SURFACE(3,1,((#372,#373),(#374,#375),(#376,#377),(#378,#379)),.CYLINDRICAL_SURF.,.F.,.F.,.F.)
B_SPLINE_SURFACE_WITH_KNOTS((4,4),(2,2),(0.,0.5),(0.0454545454545455,0.954545454545454),.PIECEWISE_BEZIER_KNOTS.)
BOUNDED_SURFACE()
GEOMETRIC_REPRESENTATION_ITEM()
RATIONAL_B_SPLINE_SURFACE(((1.,1.),(0.333333333333333,0.333333333333333),(0.333333333333333,0.333333333333333),(1.,1.)))
REPRESENTATION_ITEM('')
SURFACE()
);
#210=(
B_SPLINE_SURFACE(3,1,((#382,#383),(#384,#385),(#386,#387),(#388,#389)),.CYLINDRICAL_SURF.,.F.,.F.,.F.)
B_SPLINE_SURFACE_WITH_KNOTS((4,4),(2,2),(0.,0.5),(0.0454545454545455,0.954545454545454),.PIECEWISE_BEZIER_KNOTS.)
BOUNDED_SURFACE()
GEOMETRIC_REPRESENTATION_ITEM()
RATIONAL_B_SPLINE_SURFACE(((1.,1.),(0.333333333333333,0.333333333333333),(0.333333333333333,0.333333333333333),(1.,1.)))
REPRESENTATION_ITEM('')
SURFACE()
);
#211=(
B_SPLINE_SURFACE(3,1,((#398,#399),(#400,#401),(#402,#403),(#404,#405)),.CYLINDRICAL_SURF.,.F.,.F.,.F.)
B_SPLINE_SURFACE_WITH_KNOTS((4,4),(2,2),(0.,0.5),(0.0454545454545453,0.954545454545454),.PIECEWISE_BEZIER_KNOTS.)
BOUNDED_SURFACE()
GEOMETRIC_REPRESENTATION_ITEM()
RATIONAL_B_SPLINE_SURFACE(((1.,1.),(0.333333333333333,0.333333333333333),(0.333333333333333,0.333333333333333),(1.,1.)))
REPRESENTATION_ITEM('')
SURFACE()
);
#212=ADVANCED_FACE('',(#188),#206,.F.);
#213=ADVANCED_FACE('',(#189),#207,.F.);
#214=ADVANCED_FACE('',(#190),#208,.F.);
#215=ADVANCED_FACE('',(#191),#36,.T.);
#216=ADVANCED_FACE('',(#192),#37,.T.);
#217=ADVANCED_FACE('',(#193),#38,.F.);
#218=ADVANCED_FACE('',(#194),#209,.F.);
#219=ADVANCED_FACE('',(#195),#210,.F.);
#220=ADVANCED_FACE('',(#196),#39,.F.);
#221=ADVANCED_FACE('',(#197),#211,.F.);
#222=ADVANCED_FACE('',(#198,#199,#200,#201),#40,.T.);
#223=ADVANCED_FACE('',(#202,#203,#204,#205),#41,.F.);
#224=CLOSED_SHELL('',(#212,#213,#214,#215,#216,#217,#218,#219,#220,#221,#222,#223));
#225=STYLED_ITEM('',(#226),#233);
#226=PRESENTATION_STYLE_ASSIGNMENT((#227));
#227=SURFACE_STYLE_USAGE(.BOTH.,#228);
#228=SURFACE_SIDE_STYLE('',(#229));
#229=SURFACE_STYLE_FILL_AREA(#230);
#230=FILL_AREA_STYLE('',(#231));
#231=FILL_AREA_STYLE_COLOUR('',#232);
#232=COLOUR_RGB('',0.980392156862745,0.713725490196078,0.00392156862745098);
#233=MANIFOLD_SOLID_BREP('Part 8',#224);
#234=SHAPE_DEFINITION_REPRESENTATION(#422,#235);
#235=SHAPE_REPRESENTATION('Part 8',(#236),#417);
#236=AXIS2_PLACEMENT_3D('',#287,#249,#250);
#237=AXIS2_PLACEMENT_3D('',#296,#251,#252);
#238=AXIS2_PLACEMENT_3D('',#302,#253,#254);
#239=AXIS2_PLACEMENT_3D('',#314,#255,#256);
#240=AXIS2_PLACEMENT_3D('',#320,#257,#258);
#241=AXIS2_PLACEMENT_3D('',#332,#259,#260);
#242=AXIS2_PLACEMENT_3D('',#338,#261,#262);
#243=AXIS2_PLACEMENT_3D('',#380,#273,#274);
#244=AXIS2_PLACEMENT_3D('',#381,#275,#276);
#245=AXIS2_PLACEMENT_3D('',#390,#277,#278);
#246=AXIS2_PLACEMENT_3D('',#391,#279,#280);
#247=AXIS2_PLACEMENT_3D('',#406,#283,#284);
#248=AXIS2_PLACEMENT_3D('',#407,#285,#286);
#249=DIRECTION('',(0.,0.,1.));
#250=DIRECTION('',(1.,0.,0.));
#251=DIRECTION('',(0.,0.,1.));
#252=DIRECTION('',(1.,0.,0.));
#253=DIRECTION('',(0.,0.,1.));
#254=DIRECTION('',(1.,0.,0.));
#255=DIRECTION('',(0.,0.,1.));
#256=DIRECTION('',(1.,0.,0.));
#257=DIRECTION('',(0.,0.,1.));
#258=DIRECTION('',(1.,0.,0.));
#259=DIRECTION('',(0.,0.,1.));
#260=DIRECTION('',(1.,0.,0.));
#261=DIRECTION('',(0.,0.,1.));
#262=DIRECTION('',(1.,0.,0.));
#263=DIRECTION('',(0.461748613235032,0.887010833178223,0.));
#264=DIRECTION('',(0.,0.,-1.));
#265=DIRECTION('',(0.461748613235032,0.887010833178223,0.));
#266=DIRECTION('',(0.,0.,-1.));
#267=DIRECTION('',(-0.887010833178221,0.461748613235035,0.));
#268=DIRECTION('',(0.,0.,-1.));
#269=DIRECTION('',(-0.887010833178221,0.461748613235035,0.));
#270=DIRECTION('',(0.461748613235034,0.887010833178222,0.));
#271=DIRECTION('',(0.,0.,-1.));
#272=DIRECTION('',(0.461748613235034,0.887010833178222,0.));
#273=DIRECTION('',(0.,0.,1.));
#274=DIRECTION('',(1.,0.,0.));
#275=DIRECTION('',(0.,0.,1.));
#276=DIRECTION('',(1.,0.,0.));
#277=DIRECTION('',(0.,0.,1.));
#278=DIRECTION('',(1.,0.,0.));
#279=DIRECTION('',(0.,0.,1.));
#280=DIRECTION('',(1.,0.,0.));
#281=DIRECTION('',(-0.887010833178222,0.461748613235035,0.));
#282=DIRECTION('',(-0.887010833178222,0.461748613235035,0.));
#283=DIRECTION('',(0.,0.,1.));
#284=DIRECTION('',(1.,0.,0.));
#285=DIRECTION('',(0.,0.,1.));
#286=DIRECTION('',(1.,0.,0.));
#287=CARTESIAN_POINT('',(0.,0.,0.));
#288=CARTESIAN_POINT('',(0.143814972213211,-0.133330540288789,0.015));
#289=CARTESIAN_POINT('',(0.143814972213211,-0.133330540288789,2.16840434497101E-19));
#290=CARTESIAN_POINT('',(0.143814972213211,-0.143330540288789,0.015));
#291=CARTESIAN_POINT('',(0.143814972213211,-0.143330540288789,2.43945488809238E-19));
#292=CARTESIAN_POINT('',(0.133814972213211,-0.143330540288789,0.015));
#293=CARTESIAN_POINT('',(0.133814972213211,-0.143330540288789,2.43945488809238E-19));
#294=CARTESIAN_POINT('',(0.133814972213211,-0.133330540288789,0.015));
#295=CARTESIAN_POINT('',(0.133814972213211,-0.133330540288789,2.16840434497101E-19));
#296=CARTESIAN_POINT('',(0.138814972213211,-0.133330540288789,0.015));
#297=CARTESIAN_POINT('',(0.133814972213211,-0.133330540288789,0.015));
#298=CARTESIAN_POINT('',(0.143814972213211,-0.133330540288789,0.015));
#299=CARTESIAN_POINT('',(0.143814972213211,-0.133330540288789,0.01575));
#300=CARTESIAN_POINT('',(0.143814972213211,-0.133330540288789,-0.000750000000000001));
#301=CARTESIAN_POINT('',(0.143814972213211,-0.133330540288789,0.));
#302=CARTESIAN_POINT('',(0.138814972213211,-0.133330540288789,0.));
#303=CARTESIAN_POINT('',(0.133814972213211,-0.133330540288789,0.));
#304=CARTESIAN_POINT('',(0.133814972213211,-0.133330540288789,0.01575));
#305=CARTESIAN_POINT('',(0.133814972213211,-0.133330540288789,-0.000750000000000001));
#306=CARTESIAN_POINT('',(0.282629944426424,0.133330540288789,0.015));
#307=CARTESIAN_POINT('',(0.282629944426424,0.133330540288789,3.25260651745651E-19));
#308=CARTESIAN_POINT('',(0.282629944426424,0.123330540288789,0.015));
#309=CARTESIAN_POINT('',(0.282629944426424,0.123330540288789,2.43945488809238E-19));
#310=CARTESIAN_POINT('',(0.272629944426424,0.123330540288789,0.015));
#311=CARTESIAN_POINT('',(0.272629944426424,0.123330540288789,2.43945488809238E-19));
#312=CARTESIAN_POINT('',(0.272629944426424,0.133330540288789,0.015));
#313=CARTESIAN_POINT('',(0.272629944426424,0.133330540288789,3.25260651745651E-19));
#314=CARTESIAN_POINT('',(0.277629944426424,0.133330540288789,0.015));
#315=CARTESIAN_POINT('',(0.272629944426424,0.133330540288789,0.015));
#316=CARTESIAN_POINT('',(0.282629944426424,0.133330540288789,0.015));
#317=CARTESIAN_POINT('',(0.282629944426424,0.133330540288789,0.01575));
#318=CARTESIAN_POINT('',(0.282629944426424,0.133330540288789,-0.000750000000000001));
#319=CARTESIAN_POINT('',(0.282629944426424,0.133330540288789,0.));
#320=CARTESIAN_POINT('',(0.277629944426424,0.133330540288789,0.));
#321=CARTESIAN_POINT('',(0.272629944426424,0.133330540288789,0.));
#322=CARTESIAN_POINT('',(0.272629944426424,0.133330540288789,0.01575));
#323=CARTESIAN_POINT('',(0.272629944426424,0.133330540288789,-0.000750000000000001));
#324=CARTESIAN_POINT('',(0.213222458319818,2.78730545556109E-17,0.015));
#325=CARTESIAN_POINT('',(0.213222458319818,2.78730545556109E-17,3.25260651745651E-19));
#326=CARTESIAN_POINT('',(0.213222458319818,-0.00999999999999997,0.015));
#327=CARTESIAN_POINT('',(0.213222458319818,-0.00999999999999997,2.43945488809238E-19));
#328=CARTESIAN_POINT('',(0.203222458319818,-0.00999999999999997,0.015));
#329=CARTESIAN_POINT('',(0.203222458319818,-0.00999999999999997,2.43945488809238E-19));
#330=CARTESIAN_POINT('',(0.203222458319818,2.72607311560372E-17,0.015));
#331=CARTESIAN_POINT('',(0.203222458319818,2.72607311560372E-17,3.25260651745651E-19));
#332=CARTESIAN_POINT('',(0.208222458319818,2.72607311560372E-17,0.015));
#333=CARTESIAN_POINT('',(0.203222458319818,2.72607311560372E-17,0.015));
#334=CARTESIAN_POINT('',(0.213222458319818,2.78730545556109E-17,0.015));
#335=CARTESIAN_POINT('',(0.213222458319818,2.78730545556109E-17,0.01575));
#336=CARTESIAN_POINT('',(0.213222458319818,2.78730545556109E-17,-0.000750000000000001));
#337=CARTESIAN_POINT('',(0.213222458319818,2.78730545556109E-17,0.));
#338=CARTESIAN_POINT('',(0.208222458319818,2.72607311560372E-17,0.));
#339=CARTESIAN_POINT('',(0.203222458319818,2.72607311560372E-17,0.));
#340=CARTESIAN_POINT('',(0.203222458319818,2.72607311560372E-17,0.01575));
#341=CARTESIAN_POINT('',(0.203222458319818,2.72607311560372E-17,-0.000750000000000001));
#342=CARTESIAN_POINT('',(0.281101909740734,0.167071130730547,-0.000750000000000021));
#343=CARTESIAN_POINT('',(0.281101909740734,0.167071130730547,0.01575));
#344=CARTESIAN_POINT('',(0.113167736069446,-0.155527415399672,-0.000750000000000021));
#345=CARTESIAN_POINT('',(0.113167736069446,-0.155527415399672,0.01575));
#346=CARTESIAN_POINT('',(0.270005423610959,0.145754979203064,0.));
#347=CARTESIAN_POINT('',(0.120801107599958,-0.140863845121025,0.));
#348=CARTESIAN_POINT('',(0.273468538210221,0.152407560451901,0.));
#349=CARTESIAN_POINT('',(0.120801107599958,-0.140863845121025,0.015));
#350=CARTESIAN_POINT('',(0.120801107599958,-0.140863845121025,0.015));
#351=CARTESIAN_POINT('',(0.270005423610959,0.145754979203064,0.015));
#352=CARTESIAN_POINT('',(0.273468538210221,0.152407560451901,0.015));
#353=CARTESIAN_POINT('',(0.273468538210221,0.152407560451901,0.015));
#354=CARTESIAN_POINT('',(0.119692344058485,-0.140286659354481,-0.000749999999999994));
#355=CARTESIAN_POINT('',(0.119692344058485,-0.140286659354481,0.01575));
#356=CARTESIAN_POINT('',(0.144085141970887,-0.152984746218445,-0.000749999999999994));
#357=CARTESIAN_POINT('',(0.144085141970887,-0.152984746218445,0.01575));
#358=CARTESIAN_POINT('',(0.135187377046754,-0.148352862975386,0.));
#359=CARTESIAN_POINT('',(0.142976378429414,-0.152407560451901,0.));
#360=CARTESIAN_POINT('',(0.142976378429414,-0.152407560451901,0.015));
#361=CARTESIAN_POINT('',(0.142976378429414,-0.152407560451901,0.015));
#362=CARTESIAN_POINT('',(0.135187377046754,-0.148352862975386,0.015));
#363=CARTESIAN_POINT('',(0.30327718057019,0.155527415399671,-0.000750000000000021));
#364=CARTESIAN_POINT('',(0.30327718057019,0.155527415399671,0.01575));
#365=CARTESIAN_POINT('',(0.135343006898901,-0.167071130730547,-0.000750000000000021));
#366=CARTESIAN_POINT('',(0.135343006898901,-0.167071130730547,0.01575));
#367=CARTESIAN_POINT('',(0.2555161562484,0.0637793413116756,0.));
#368=CARTESIAN_POINT('',(0.295643809039677,0.140863845121025,0.));
#369=CARTESIAN_POINT('',(0.295643809039677,0.140863845121025,0.015));
#370=CARTESIAN_POINT('',(0.295643809039677,0.140863845121025,0.015));
#371=CARTESIAN_POINT('',(0.2555161562484,0.0637793413116756,0.015));
#372=CARTESIAN_POINT('',(0.203222458319818,2.72607311560372E-17,0.015));
#373=CARTESIAN_POINT('',(0.203222458319818,2.72607311560372E-17,3.25260651745651E-19));
#374=CARTESIAN_POINT('',(0.203222458319818,0.01,0.015));
#375=CARTESIAN_POINT('',(0.203222458319818,0.01,2.43945488809238E-19));
#376=CARTESIAN_POINT('',(0.213222458319818,0.01,0.015));
#377=CARTESIAN_POINT('',(0.213222458319818,0.01,2.43945488809238E-19));
#378=CARTESIAN_POINT('',(0.213222458319818,2.78730545556109E-17,0.015));
#379=CARTESIAN_POINT('',(0.213222458319818,2.78730545556109E-17,3.25260651745651E-19));
#380=CARTESIAN_POINT('',(0.208222458319818,2.72607311560372E-17,0.015));
#381=CARTESIAN_POINT('',(0.208222458319818,2.72607311560372E-17,0.));
#382=CARTESIAN_POINT('',(0.272629944426424,0.133330540288789,0.015));
#383=CARTESIAN_POINT('',(0.272629944426424,0.133330540288789,3.25260651745651E-19));
#384=CARTESIAN_POINT('',(0.272629944426424,0.143330540288789,0.015));
#385=CARTESIAN_POINT('',(0.272629944426424,0.143330540288789,2.43945488809238E-19));
#386=CARTESIAN_POINT('',(0.282629944426424,0.143330540288789,0.015));
#387=CARTESIAN_POINT('',(0.282629944426424,0.143330540288789,2.43945488809238E-19));
#388=CARTESIAN_POINT('',(0.282629944426424,0.133330540288789,0.015));
#389=CARTESIAN_POINT('',(0.282629944426424,0.133330540288789,3.25260651745651E-19));
#390=CARTESIAN_POINT('',(0.277629944426424,0.133330540288789,0.015));
#391=CARTESIAN_POINT('',(0.277629944426424,0.133330540288789,0.));
#392=CARTESIAN_POINT('',(0.272359774668748,0.152984746218445,-0.000750000000000049));
#393=CARTESIAN_POINT('',(0.272359774668748,0.152984746218445,0.01575));
#394=CARTESIAN_POINT('',(0.29675257258115,0.140286659354481,-0.000750000000000049));
#395=CARTESIAN_POINT('',(0.29675257258115,0.140286659354481,0.01575));
#396=CARTESIAN_POINT('',(0.284556173624949,0.146635702786463,0.));
#397=CARTESIAN_POINT('',(0.284556173624949,0.146635702786463,0.015));
#398=CARTESIAN_POINT('',(0.133814972213211,-0.133330540288789,0.015));
#399=CARTESIAN_POINT('',(0.133814972213211,-0.133330540288789,4.33680868994202E-19));
#400=CARTESIAN_POINT('',(0.133814972213211,-0.123330540288789,0.015));
#401=CARTESIAN_POINT('',(0.133814972213211,-0.123330540288789,3.25260651745651E-19));
#402=CARTESIAN_POINT('',(0.143814972213211,-0.123330540288789,0.015));
#403=CARTESIAN_POINT('',(0.143814972213211,-0.123330540288789,3.25260651745651E-19));
#404=CARTESIAN_POINT('',(0.143814972213211,-0.133330540288789,0.015));
#405=CARTESIAN_POINT('',(0.143814972213211,-0.133330540288789,4.33680868994202E-19));
#406=CARTESIAN_POINT('',(0.138814972213211,-0.133330540288789,0.015));
#407=CARTESIAN_POINT('',(0.138814972213211,-0.133330540288789,0.));
#408=CARTESIAN_POINT('',(0.11090501069847,-0.169660096295056,0.015));
#409=CARTESIAN_POINT('',(0.11090501069847,0.169660096295056,0.015));
#410=CARTESIAN_POINT('',(0.305539905941165,-0.169660096295056,0.015));
#411=CARTESIAN_POINT('',(0.305539905941165,0.169660096295056,0.015));
#412=CARTESIAN_POINT('',(0.11090501069847,-0.169660096295056,0.));
#413=CARTESIAN_POINT('',(0.11090501069847,0.169660096295056,0.));
#414=CARTESIAN_POINT('',(0.305539905941165,-0.169660096295056,0.));
#415=CARTESIAN_POINT('',(0.305539905941165,0.169660096295056,0.));
#416=MECHANICAL_DESIGN_GEOMETRIC_PRESENTATION_REPRESENTATION('',(#225),#417);
#417=(
GEOMETRIC_REPRESENTATION_CONTEXT(3)
GLOBAL_UNCERTAINTY_ASSIGNED_CONTEXT((#418))
GLOBAL_UNIT_ASSIGNED_CONTEXT((#421,#420,#419))
REPRESENTATION_CONTEXT('Part 8','TOP_LEVEL_ASSEMBLY_PART')
);
#418=UNCERTAINTY_MEASURE_WITH_UNIT(LENGTH_MEASURE(1.E-08),#421,'DISTANCE_ACCURACY_VALUE','Maximum Tolerance applied to model');
#419=(
NAMED_UNIT(*)
SI_UNIT($,.STERADIAN.)
SOLID_ANGLE_UNIT()
);
#420=(
NAMED_UNIT(*)
PLANE_ANGLE_UNIT()
SI_UNIT($,.RADIAN.)
);
#421=(
LENGTH_UNIT()
NAMED_UNIT(*)
SI_UNIT($,.METRE.)
);
#422=PRODUCT_DEFINITION_SHAPE('','',#423);
#423=PRODUCT_DEFINITION('','',#425,#424);
#424=PRODUCT_DEFINITION_CONTEXT('',#431,'design');
#425=PRODUCT_DEFINITION_FORMATION_WITH_SPECIFIED_SOURCE('','',#427,.NOT_KNOWN.);
#426=PRODUCT_RELATED_PRODUCT_CATEGORY('','',(#427));
#427=PRODUCT('Part 8','Part 8','Part 8',(#429));
#428=PRODUCT_CATEGORY('','');
#429=PRODUCT_CONTEXT('',#431,'mechanical');
#430=APPLICATION_PROTOCOL_DEFINITION('international standard','ap242_managed_model_based_3d_engineering',2020,#431);
#431=APPLICATION_CONTEXT('managed model based 3d engineering');
ENDSEC;
END-ISO-10303-21;
